CoelacanthDisplay.sfdir
StartChar: five
Encoding: 53 53 68
Width: 355
Flags: HW
LayerCount: 2
Fore
SplineSet
83 393.5 m 9
 150.860351562 395.450195312 241.5 396 257 398.5 c 0
 283.412109375 402.759765625 292.110351562 420.610351562 312 440.5 c 9
 312 440.5 319.3203125 436.83984375 324 434.5 c 9
 296.700195312 395.889648438 271.5 335 254 335.5 c 0
 223.475585938 336.372070312 157.009765625 332.5 95 332.5 c 9
 95 332.5 90.509765625 259.299804688 87 212.5 c 1
 169.5 219 291 176.166015625 291 48.5 c 3
 291 -95.595703125 137 -206 32 -215 c 9
 32 -215 32.33984375 -205.849609375 30 -200 c 1
 120 -197 233 -92.1005859375 233 28 c 3
 233 87.0654296875 189.5 164 58 152 c 1
 67.5 208 79.359375 305.161132812 83 393.5 c 9
EndSplineSet
Substitution2: "case-1" five.proportionallining
Substitution2: "lnum-1" five.proportionallining
Substitution2: "tnum-1" five.tabulartext
Substitution2: "numr-1" five.numerator
Substitution2: "dnom-1" five.denom
EndChar
StartChar: six
Encoding: 54 54 69
Width: 446
Flags: HW
LayerCount: 2
Fore
SplineSet
341 630 m 9
 341 630 347.099609375 621.459960938 351 616 c 1
 191 530 105 417.932617188 105 244 c 27
 105 136.456054688 155.456054688 18 263 18 c 27
 322.728515625 18 363 74.2705078125 363 134 c 27
 363 227.599609375 312.599609375 326 219 326 c 3
 191.620117188 326 171 310 151 288 c 1
 141 296 l 1
 145 314 207.845703125 364 263 364 c 3
 338 364 411 276.702148438 411 178 c 3
 411 75.951171875 317.0234375 -10 229 -10 c 3
 103.85546875 -10 43 121.913085938 43 214 c 3
 43 413.572265625 167 572 341 630 c 9
EndSplineSet
Substitution2: "case-1" six.proportionallining
Substitution2: "lnum-1" six.proportionallining
Substitution2: "tnum-1" six.tabulartext
Substitution2: "numr-1" six.numerator
Substitution2: "dnom-1" six.denom
EndChar
StartChar: E
Encoding: 69 69 30
Width: 639
Flags: HW
AnchorPoint: "Bottom" 309 -15 basechar 0
AnchorPoint: "Top" 330 682 basechar 0
AnchorPoint: "Ogonek" 560 1 basechar 0
LayerCount: 2
Fore
SplineSet
41 704 m 1
 90 704 170 703 254 703 c 3
 392 703 538 704 565 708 c 1
 570 706 571 704 571 698 c 3
 571 686 563 656 554 562 c 1
 535 563 l 1
 539 609 540 640 515 653 c 0
 478 672 412 680 347 680 c 3
 297 680 248 676 214 668 c 0
 209 667 205 666 204 661 c 0
 197 602 193 440 193 374 c 1
 243 372 406 374 460 381 c 0
 486 385 496 430 502 453 c 1
 519 451 l 1
 516 426 514 386 514 345 c 3
 514 308 516 271 518 246 c 1
 498 245 l 1
 497 294 486 331 456 336 c 0
 370 350 266 348 193 346 c 1
 193 267 191 113 202 54 c 0
 203 48 205 44 209 43 c 0
 226 35 285 25 351 25 c 3
 420 25 496 36 541 71 c 0
 568 92 592 126 608 167 c 1
 625 161 l 1
 614 125 579 19 568 -6 c 1
 559 -3 437 0 310 0 c 3
 195 0 75 -2 31 -9 c 1
 28 10 l 1
 62 16 96 19 101 53 c 0
 112 138 117 257 117 376 c 3
 117 468 114 560 109 636 c 0
 107 674 82 685 41 690 c 1
 41 704 l 1
EndSplineSet
Position2: "cpsp-1" dx=0 dy=0 dh=50 dv=100
Substitution2: "c2pc-1" e.pcap
Substitution2: "c2sc-1" e.smcp
EndChar
StartChar: L
Encoding: 76 76 37
Width: 621
Flags: HW
AnchorPoint: "Bottom" 303 -15 basechar 0
AnchorPoint: "Top" 170 676 basechar 0
AnchorPoint: "TopRight" 367 531 basechar 0
LayerCount: 2
Fore
SplineSet
287 710 m 1
 289 685 l 1
 223 678 204 675 200 633 c 0
 189 469 187 263 193 86 c 0
 194 49 208 37 263 35 c 0
 322 34 354 32 393 36 c 0
 542 51 573 92 586 151 c 1
 607 144 l 1
 595 94 579 20 558 -13 c 1
 521 -1 464 -3 438 -2 c 0
 380 -2 289 0 208 0 c 3
 161 0 34 -2 31 -2 c 1
 31 20 l 1
 101 31 109 40 110 92 c 0
 111 182 114 303 114 403 c 3
 114 478 113 560 110 621 c 0
 107 685 87 683 34 687 c 1
 36 707 l 1
 80 704 116 702 147 702 c 3
 201 702 243 704 287 710 c 1
EndSplineSet
Position2: "cpsp-1" dx=0 dy=0 dh=50 dv=100
Substitution2: "c2pc-1" l.pcap
Substitution2: "c2sc-1" l.smcp
EndChar
StartChar: U
Encoding: 85 85 53
Width: 844
Flags: HW
AnchorPoint: "Bottom" 422 -15 basechar 0
AnchorPoint: "Top" 432 671 basechar 0
AnchorPoint: "Ogonek" 519 -2 basechar 0
LayerCount: 2
Fore
SplineSet
42 707 m 1
 76.4208984375 702.813476562 117.1171875 701.223632812 159.357421875 701.223632812 c 3
 207.926757812 701.223632812 258.538085938 703.326171875 304 706 c 1
 305 686 l 1
 230 686 205 679 200 615 c 0
 190 503 194 374 195 235 c 1
 195 180 204 139 222 108 c 0
 255 54 322 17 427 17 c 0
 540 17 615 59 642 96 c 0
 667 130 680 177 687 257 c 0
 697 357 704 509 684 647 c 0
 679 681 644 683 594 683 c 1
 595 705 l 1
 611.666992188 702.333007812 679.888671875 700.111328125 737.1484375 700.111328125 c 3
 765.77734375 700.111328125 791.666992188 700.666992188 807 702 c 1
 805 684 l 1
 755 688 732 680 732 637 c 0
 731 525 732 389 718 256 c 0
 711 179 700 125 666 76 c 0
 628 22 534 -16 422 -16 c 0
 298 -16 237 5 177 62 c 0
 141 95 116 139 120 232 c 0
 125 391 122 575 117 630 c 0
 111 689 97 682 40 688 c 1
 42 707 l 1
EndSplineSet
Position2: "cpsp-1" dx=0 dy=0 dh=50 dv=100
Substitution2: "c2pc-1" u.pcap
Substitution2: "c2sc-1" u.smcp
EndChar
StartChar: Y
Encoding: 89 89 57
Width: 737
Flags: HW
AnchorPoint: "Top" 385 695 basechar 0
AnchorPoint: "Bottom" 387 -15 basechar 0
LayerCount: 2
Fore
SplineSet
278 688 m 1
 248.181640625 688.424804688 237.079101562 686.611328125 227 683.625 c 0
 202.581054688 676.390625 203.845703125 652.98046875 218.5 631 c 0
 241.5 595 366.5 425 410.5 366 c 1
 484.327148438 475.587890625 535.916015625 551.282226562 575.91796875 627.200195312 c 0
 586.606445312 647.486328125 577.5 662 559 674.240234375 c 0
 546.768554688 682.333007812 521.260742188 689.666015625 496.5 690.5 c 1
 500.5 710.5 l 1
 528.620117188 702.84765625 580.232421875 699.869140625 633.498046875 699.869140625 c 3
 666.41796875 699.869140625 699.970703125 702.15234375 729 707.5 c 1
 725.5 690 l 1
 682.5 684 644.5 663 612.5 617 c 0
 553.5 535 476.5 420 426.5 335 c 1
 426.5 270 423.71875 115.922851562 428.5 61 c 0
 431.814453125 22.93359375 432.5 26.5 523.5 10 c 1
 522.5 -11 l 1
 491.505859375 -4.2841796875 439.4296875 -0.2373046875 386.60546875 -0.2373046875 c 3
 337.170898438 -0.2373046875 287.081054688 -3.7822265625 253 -12 c 1
 251.5 9.5 l 1
 296 16.5 344.059570312 12.2841796875 345.5 67 c 1
 349.5 146 347.5 245 345.5 320 c 1
 309.5 385 179.5 566 116.5 639 c 0
 78.5 682 57.5 689 14.5 689 c 1
 14.5 710 l 1
 69.7685546875 706.359375 122.188476562 703.814453125 181.185546875 703.814453125 c 3
 211.322265625 703.814453125 243.174804688 704.478515625 278 706 c 1
 278 688 l 1
EndSplineSet
Position2: "cpsp-1" dx=0 dy=0 dh=50 dv=100
Substitution2: "c2pc-1" y.pcap
Substitution2: "c2sc-1" y.smcp
EndChar
StartChar: asciicircum
Encoding: 94 94 872
Width: 463
Flags: HW
LayerCount: 2
Fore
SplineSet
383.563476562 401.09765625 m 1
 366.88671875 394.451171875 l 1
 231.65625 603.27734375 l 1
 96.42578125 394.451171875 l 1
 79.7490234375 401.09765625 l 1
 220.166992188 695.502929688 l 1
 243.145507812 695.502929688 l 1
 383.563476562 401.09765625 l 1
EndSplineSet
EndChar
StartChar: d
Encoding: 100 100 3
Width: 500
Flags: HMW
AnchorPoint: "Bottom" 227 -15 basechar 0
AnchorPoint: "TopRight" 481.5 531 basechar 0
AnchorPoint: "Top" 368 734 basechar 0
LayerCount: 2
Fore
SplineSet
352 57 m 1
 306 31 254 0 186 0 c 3
 85 0 22 81 22 181 c 3
 22 293 99.7022965483 351.669010481 180 387 c 0
 205 398 231 406 258 406 c 3
 295 406 329 395 360 386 c 1
 365 475 366 568 357 653 c 0
 355.609021768 666.137016634 351.95665593 675.295146067 338.746418352 675.295146067 c 3
 326.871199559 675.295146067 308.358898908 671.840218219 297 671 c 1
 293 683 l 1
 336 698.441176471 395 727.264705882 432 753 c 1
 443 747 l 1
 439 721 434.44223859 679.970220968 432 647 c 0
 418 458 415 188 415 155 c 3
 415 107 419.978372313 64.1513938085 426 22 c 0
 427 15 431 10 440 12 c 0
 495 30 l 1
 500 14 l 1
 466 3 382 -30 370 -30 c 3
 360 -30 355.800994957 1.98507565235 355 14 c 0
 354 29 352 42 352 57 c 1
222 373 m 3
 189 373 164.146651741 361.766837569 142 348 c 0
 105 325 74 289 74 231 c 3
 74 128 140 39 240 39 c 3
 284 39 326 56 354 76 c 1
 353 130 356 214.99537047 356 323 c 0
 356 337 351.219380404 343.664508529 340 347 c 0
 303 358 266 373 222 373 c 3
EndSplineSet
Substitution2: "pcap-1" d.pcap
Substitution2: "smcp-1" d.smcp
EndChar
StartChar: r
Encoding: 114 114 17
Width: 351
Flags: HMW
AnchorPoint: "Bottom" 142 -15 basechar 0
AnchorPoint: "Top" 150.5 526 basechar 0
LayerCount: 2
Fore
SplineSet
151 199 m 0
 151 146 149.471983184 94.9202522419 153 42 c 0
 154 27 159.016116419 19.2045746092 173 18 c 0
 201.281060997 15.5638635862 232 14.2 263 12 c 1
 264 -2 l 1
 214 0 161 0 108 0 c 3
 81 0 43 -2 28 -3 c 1
 28 9 l 1
 59 18 l 2
 70.2159309021 21.2562380038 73.9597510066 27.0058089178 76 41 c 0
 83 89.0134228188 87 135.067114094 87 187 c 0
 87 228 85.1678532349 268.817907947 80 310 c 0
 78.3765705927 322.936942334 66 338 45 338 c 3
 38 338 26 336 19 336 c 1
 17 346 l 1
 45 361 116 401 144 422 c 1
 150 422 151.061718988 417.999238037 151 413 c 2
 150 332 l 1
 182 350 283 414 289 415 c 1
 328 392 338 381 338 364 c 0
 338 341 307 321 281 316 c 1
 275 336 273 354 243 354 c 3
 221 354 152 325 152 293 c 3
 152 262 151 230 151 199 c 0
EndSplineSet
Substitution2: "pcap-1" r.pcap
Substitution2: "smcp-1" r.smcp
EndChar
StartChar: u
Encoding: 117 117 20
Width: 512
Flags: HMW
AnchorPoint: "Bottom" 248 -15 basechar 0
AnchorPoint: "Top" 260 497 basechar 0
AnchorPoint: "Horn" 430.5 333 basechar 0
AnchorPoint: "Ogonek" 387.65 -3 basechar 0
LayerCount: 2
Fore
SplineSet
293 378 m 1
 336 385 386 396 427 407 c 1
 432 402 l 1
 428 315.045898438 419 222.9765625 419 135 c 0
 419 98 422.395507812 65.23046875 427 33 c 0
 428 26 430.967773438 22.16015625 440 24 c 2
 494 35 l 1
 498 20 l 1
 460.633789062 8.703125 413.249023438 -18 380 -18 c 0
 379 -18 379 -18 379 -18 c 0
 356.713867188 -18 353.286132812 44 352 59 c 1
 302 29 228 -10 169 -10 c 3
 121 -10 93.345703125 13.13671875 79 49 c 0
 69 74 67 105 67 138 c 0
 67 192.012695312 70 244.987304688 70 299 c 0
 70 327 64 349 36 349 c 0
 29 349 18 347 11 347 c 1
 8 359 l 1
 51 373 99 393 137 413 c 1
 147 408 l 1
 142 346.19140625 134 270.990234375 134 203 c 0
 134 118 137 33 223 33 c 0
 275 33 318 57 352 79 c 1
 356 158 359 236 359 317 c 3
 359 361 335 363.270507812 292 364 c 1
 293 378 l 1
EndSplineSet
Substitution2: "pcap-1" u.pcap
Substitution2: "smcp-1" u.smcp
EndChar
StartChar: z
Encoding: 122 122 25
Width: 441
Flags: HMW
AnchorPoint: "Bottom" 218 -15 basechar 0
AnchorPoint: "Top" 213.5 500 basechar 0
LayerCount: 2
Fore
SplineSet
360 -1 m 0
 291 1 218 2 147 0 c 0
 104 -1 59 -4 18 -6 c 1
 16 6 l 1
 122 116.090163934 225 241.057377049 311 369 c 1
 290 370 270 370 249 370 c 0
 196 370 148 367 98 361 c 0
 60 356 38 337 21 300 c 1
 8 310 l 1
 20 335 35 368 37 399 c 1
 87 393 143 390 198 390 c 3
 272 390 345 393 416 397 c 1
 419 390 l 1
 323 268.997275204 214 153.945504087 125 26 c 1
 162 26 199 24 236 24 c 0
 288 24 329 28 359 43 c 0
 377 52 391 65 402 83 c 0
 408 94 414 106 418 121 c 1
 433 121 l 1
 433 98 413 31 401 -3 c 1
 387 -2 374 -1 360 -1 c 0
EndSplineSet
Substitution2: "pcap-1" z.pcap
Substitution2: "smcp-1" z.smcp
EndChar
StartChar: cent
Encoding: 162 162 1204
Width: 408
UnlinkRmOvrlpSave: 1
Flags: HW
LayerCount: 2
Fore
SplineSet
25 182 m 3
 25 250.094412951 41.5679295313 295.196736144 89 342 c 0
 137.697530864 390.051948052 181.073948583 416 250 416 c 3
 301.098699568 416 325.166666667 394.086956522 373 380 c 1
 345.5 352.4 330.5 335.6 303 308 c 1
 288.214285714 340.728163266 267.952380953 386 211 386 c 3
 178.275762534 386 146.288286121 370.865299345 127 352 c 0
 86.7550764802 312.637636515 81 266.039984013 81 216 c 3
 81 141.14779988 134.858619175 45 228 45 c 3
 289.251707598 45 319.038167939 70.757142857 360 126 c 1
 364.875 123.375 368.125 121.625 373 119 c 1
 337.981818182 69.5454545455 287.929788204 -9 199 -9 c 3
 76.6141371125 -9 25 110.179231167 25 182 c 3
EndSplineSet
Refer: 1967 58113 N 0.0181668 0.693762 -0.968418 0.0253589 189.417 -147.881 2
Position2: "'lnum-2' vertical adjustment" dx=0 dy=125 dh=0 dv=0
EndChar
StartChar: AE
Encoding: 198 198 319
Width: 1048
Flags: HW
AnchorPoint: "Top" 564 699 basechar 0
AnchorPoint: "Bottom" 560 -15 basechar 0
LayerCount: 2
Back
SplineSet
396 692 m 1x5de0
 459.272012394 686.532048312 556.561190777 684.572593564 653.192821453 684.572593564 c 0
 803.974281922 684.572593564 953.154767421 689.343407866 969 693 c 1
 980.145145837 683.247997393 984.133414459 677.741599913 984.133414459 669.087387512 c 0
 984.133414459 652.893580795 970.168856119 625.677987617 963 539 c 1
 933 536 l 1
 922 572 941 619 905 630 c 0
 863.488636507 641.860389569 801.137444756 648.076658986 740.260246011 648.076658986 c 0
 708.746754637 648.076658986 677.628246937 646.410894684 650 643 c 0
 632 641 619 627 618 609 c 0x5ee0
 614 526.970338983 609 445.953389831 608 370 c 1
 672 372 824 372 838 373 c 0
 875 378 880 404 896 448 c 1
 930 441 l 1
 921.800908316 410.132831309 918.486685813 379.498275435 918.486685813 348.871954284 c 0
 918.486685813 315.997648821 922.305294619 283.132831309 928 250 c 1
 892 241 l 1
 872 312 879 325 838 329 c 0
 794 334 701 333 608 334 c 1
 607 236.227091633 611 147.525896414 623 81 c 0
 627 64 636 50 653 49 c 0
 698.831179232 44.5647245905 737.376555516 40.3723092792 773.782518979 40.3723092792 c 0
 811.251037011 40.3723092792 846.453436792 44.8130178498 885 58 c 0
 944 78 954 101 993 177 c 1
 1021 170 l 1
 1005 104 994 62 982 0 c 1
 877.083081066 1.45355771389 767.073393242 3.06987648348 667.598205869 3.06987648348 c 0x3de0
 584.624915197 3.06987648348 509.225266505 0.552582785989 451 -9 c 1
 441 26 l 1x9de0
 494 36 527 49 527 77 c 1
 528.380926187 103.914026086 529.284877868 166.790357996 529.630859375 241.087890625 c 1
 467.278003094 249.660049211 355.177385742 253.494120142 272.916992188 247 c 1
 235.500997091 184.6 209.014082931 147.759493671 176.979 87 c 0
 158.157 51 172.988 29 244.937 34 c 1
 239.599 -10 l 1
 207.9511992 -3.42116167511 156.803289353 0.296115413079 108.669988834 0.296115413079 c 0
 76.3230769561 0.296115413079 45.3376267038 -1.38268590218 22.5469 -5 c 1
 22.5469 -5 18.2832 20 19.9365 34 c 1
 71.5889 48 102.294 57 117.652 80 c 0
 245.893953454 285.468704307 363.399910804 480.400810666 462.046875 648.923828125 c 1
 441.407911312 652.540879605 417.029954203 656.00792895 391 661 c 1
 396 692 l 1x5de0
499.977539062 640.265625 m 1
 473.026905511 593.239042544 345.505326951 370.882231497 296.875 289 c 1
 347.043311173 284.20133642 475.957582399 285.850220822 529.76953125 285.991210938 c 1
 529.972511301 417.75573903 528.516654383 568.318110715 525 618 c 0
 524.612992871 628.452823952 515.381822824 635.158711011 499.977539062 640.265625 c 1
EndSplineSet
Fore
SplineSet
384 704 m 1
 433 704 571 703 655 703 c 0
 793 703 923 704 950 708 c 0
 955 706 956 704 956 698 c 0
 956 686 948 656 939 562 c 1
 920 563 l 1
 924 609 925 640 900 653 c 0
 863 672 805 680 740 680 c 0
 690 680 649 676 615 668 c 0
 610 667 606 666 605 661 c 0
 598 602 594 440 594 374 c 1
 644 372 799 374 853 381 c 0
 879 385 889 430 895 453 c 1
 912 451 l 1
 909 426 907 386 907 345 c 0
 907 308 909 271 911 246 c 1
 891 245 l 1
 890 294 879 331 849 336 c 0
 763 350 667 348 594 346 c 1
 594 267 592 113 603 54 c 0
 604 48 606 44 610 43 c 0
 627 35 686 25 752 25 c 0
 821 25 905 36 950 71 c 0
 977 92 1001 126 1017 167 c 1
 1034 161 l 1
 1023 125 988 19 977 -6 c 1
 968 -3 838 0 711 0 c 0
 596 0 476 -2 432 -9 c 1
 429 10 l 1
 463 16 499 19 504 53 c 0
 511 105 516 171 518 242 c 1
 456 246 324 248 256 247 c 1
 223 190 190 134 157 77 c 0
 136 40 168 26 222 11 c 1
 219 -10 l 1
 181 -5 126 -1 77 -1 c 0
 55 -1 33 -2 16 -4 c 1
 14 16 l 1
 67 22 89 48 104 70 c 0
 170 165 373 493 469 669 c 1
 441 680 406 685 384 690 c 1
 384 704 l 1
498 651 m 1
 416 521 345 401 277 284 c 1
 339 279 463 280 519 280 c 1
 522.580532978 394.577055304 519.908681187 524.141485165 512 623 c 0
 511 634 506 643 498 651 c 1
EndSplineSet
Position2: "cpsp-1" dx=0 dy=0 dh=50 dv=100
Substitution2: "c2pc-1" ae.pcap
Substitution2: "c2sc-1" ae.smcp
EndChar
StartChar: kgreenlandic
Encoding: 312 312 345
Width: 520
Flags: HW
LayerCount: 2
Fore
SplineSet
179 211 m 1
 169 204 l 1
 169 140.25 171.723635175 78.5727361869 175 54 c 0
 177 39 185.619315018 37.1522739927 196 33 c 0
 206 29 216 28 230 27 c 1
 225 -7 l 1
 191 -1 172 4 130 4 c 3
 100 4 64 -3 34 -5 c 1
 32 28 l 1
 43 29 54.2438024311 30.030722479 64 33 c 0
 87 40 93.3132247115 48.0575369992 96 76 c 0
 101 128 105 170 105 235 c 3
 105 253.368013699 103.27297056 281.632471039 101 318 c 0
 100 334 94 348 77 348 c 3
 71 348 51 345 41 344 c 1
 36 373 l 1
 88 381.884615385 124 387.538461538 167 415 c 1
 187 399 l 1
 181 385 174.184346429 357.982026431 173 347 c 0
 171 328.454705882 168 273.908529412 167 227 c 1
 201.5858 255.29682906 250.733796152 297.620653704 285 330 c 0
 291.596571429 336.233333333 301 348.518518519 301 355 c 3
 301 373 277 372 267 374 c 1
 269 401 l 1
 295 399 330 399 357 399 c 3
 388.166666667 399 428.777777778 399 459 403 c 1
 461 371 l 1
 400.820895522 364.000222222 364.689666047 341.369176033 333 319 c 2
 231 247 l 1
 297.824402928 186.179636497 367.532605558 122.858938129 446 52 c 1
 462 37 490 29 504 28 c 1
 501 -6 l 1
 467 0 449 4 407 4 c 3
 377 4 345 -3 315 -5 c 1
 312 28 l 1
 348 33 348 37 359 38 c 1
 296.777686305 99.8038948798 205.773756239 186.901875399 179 211 c 1
EndSplineSet
EndChar
StartChar: uni0181
Encoding: 385 385 1987
Width: 723
Flags: HW
LayerCount: 2
Fore
SplineSet
421 381 m 0
 490 391 527 440 527 499 c 3
 527 537 508 653 403 653 c 3
 389 653 364 651 355 649 c 0
 333 644 331 624 330 614 c 0
 320 501 322 379 322 379 c 1
 404 379 411 380 421 381 c 0
397 349 m 0
 320 349 l 9
 321 251 321 155 323 96 c 0
 324 59 329 47 355 41 c 0
 365 39 410 34 436 34 c 3
 528 34 598 83 598 178 c 3
 598 262 540 349 397 349 c 0
196 653 m 3
 155 653 96 634 96 592 c 3
 96 571 111 554 135 537 c 1
 123 506 98 487 71 487 c 3
 32 487 7 515 7 544 c 3
 7 621 108 686 189 686 c 3
 200 686 209 684 263 684 c 3
 316 684 371 694 421 694 c 3
 576 694 617 578 617 518 c 3
 617 447 567 402 475 369 c 1
 598 363 688 278 688 181 c 3
 688 70 586 -4 427 -4 c 3
 374 -4 324 2 267 2 c 3
 208 2 163 -2 156 -2 c 1
 153 34 l 1
 200 36 235 36 237 73 c 0
 237 78 240 176 240 292 c 3
 240 461 233 605 232 614 c 0
 231 624 220 653 196 653 c 3
EndSplineSet
EndChar
StartChar: Ohorn
Encoding: 416 416 758
Width: 793
UnlinkRmOvrlpSave: 1
Flags: HW
AnchorPoint: "Top" 401 695 basechar 0
AnchorPoint: "Bottom" 416 -15 basechar 0
AnchorPoint: "Middle" 417.697 364.853 basechar 0
LayerCount: 2
Fore
SplineSet
752 688 m 3
 752 709.041992188 737.181640625 725.625976562 713 743 c 1
 725.31640625 773.641601562 749.9765625 792.919921875 776.541992188 792.919921875 c 3
 815.244140625 792.919921875 840.643554688 764.76171875 840.643554688 735.86328125 c 3
 840.643554688 658.776367188 740.266601562 594.1328125 659.493164062 594.1328125 c 3
 648.712890625 594.1328125 639.3671875 598.567382812 630 606 c 1
 586 657 l 1
 607.8671875 639.8828125 627.685546875 627 652 627 c 3
 692.520507812 627 752 646.424804688 752 688 c 3
EndSplineSet
Refer: 40 79 N 1 0 0 1 0 0 2
Position2: "cpsp-1" dx=0 dy=0 dh=50 dv=100
Substitution2: "c2pc-1" ohorn.pcap
Substitution2: "c2sc-1" ohorn.smcp
EndChar
StartChar: uni0222
Encoding: 546 546 1755
Width: 618
UnlinkRmOvrlpSave: 1
Flags: HW
LayerCount: 2
Fore
SplineSet
277.771484375 638.404296875 m 1
 235.119879898 638.404296875 187.428710938 603.439453125 187.428710938 574.482421875 c 3
 187.428710938 512.909125401 257.898317505 488.193975903 330.124023438 476 c 0
 466.392566375 452.993574415 582 350.3513408 582 236.216796875 c 3
 582 90.0195062727 463.311284637 -7 305.713867188 -7 c 3
 165.943405299 -7 36 69.6120896794 36 214.11328125 c 3
 36 327.845336025 147.808024001 415.172337543 252 442.397460938 c 1
 268.490529486 454.685289361 284.790280065 462.67979361 300.42578125 466 c 1
 376.986328125 471.92578125 424.314453125 527.274414062 424.314453125 579.088867188 c 3
 424.314453125 622.260742188 389.177734375 698.984375 305 708.33203125 c 1
 313 744.655273438 l 1
 405.9296875 741.612304688 510 700.469726562 510 599.005859375 c 3
 510 535.309293143 453.689357805 476.415440988 374 451.709960938 c 1
 356.446693614 438.538253115 337.759061186 429.38154818 318.2890625 425 c 1
 225.536897997 415.849316145 131.057617188 336.867624746 131.057617188 250.57421875 c 3
 131.057617188 145.05332019 209.504529467 37.341796875 324.314453125 37.341796875 c 3
 467.452548649 37.341796875 483.942382812 158.228697372 483.942382812 210.11328125 c 3
 483.942382812 300.968382551 413.240062197 380.711171147 298.077148438 403.515625 c 0
 187.436945495 425.424495832 96.0576171875 476.221331764 96.0576171875 548.581054688 c 3
 96.0576171875 617.477539062 196.366418717 674 272.713867188 674 c 1
 277.771484375 638.404296875 l 1
EndSplineSet
Substitution2: "c2pc-1" uni0223.pcap
Substitution2: "c2sc-1" uni0223.smcp
EndChar
StartChar: uni0242
Encoding: 578 578 1986
Width: 348
Flags: HW
LayerCount: 2
Fore
SplineSet
172 66 m 3
 172 45.517578125 178.987154447 39.5341796875 219 34 c 0
 235 30 253 29 267 28 c 1
 262 -6 l 1
 220.192166759 -0.5458984375 173.023731333 4 128 4 c 3
 103.943359375 4 67.056640625 -1 43 -5 c 1
 41 28 l 1
 52 29 67.154296875 30.287109375 78 33 c 0
 93.5615234375 36.892578125 103 51.724609375 103 70 c 3
 103 128.288085938 137.194335938 144.490234375 176 156 c 0
 215.970703125 166.338867188 251 193.333984375 251 252 c 3
 251 320.69280599 192.285714286 368 114 368 c 3
 76.6421052632 368 45.0315789474 352 23 336 c 1
 7 362 l 1
 40.1111111111 389 97.568627451 419 156 419 c 3
 197.328778039 419 323 400.015140086 323 278 c 3
 323 202.75 250 149.125976562 214 138 c 0
 183.868164062 126.14453125 172 105.94140625 172 66 c 3
EndSplineSet
EndChar
StartChar: uni025B
Encoding: 603 603 1189
Width: 358
Flags: HW
LayerCount: 2
Fore
SplineSet
288 317 m 1
 250 342 199 367 165 367 c 3
 129 367 113 351 113 327 c 3
 113 278 137 224 277 218 c 1
 277 208 276 198 275 189 c 1
 117 189 109 157 109 111 c 3
 109 71 159 36 224 36 c 3
 263 36 296 52 319 68 c 1
 335 42 l 1
 301 15 242 -15 182 -15 c 3
 90 -15 28 29 28 86 c 3
 28 121 63 190 145 199 c 1
 75 221 47 258 47 284 c 3
 47 360 128 417 217 417 c 3
 265 417 314 397 345 374 c 1
 344 347 343 349 288 317 c 1
EndSplineSet
EndChar
StartChar: uni025E
Encoding: 606 606 2000
Width: 457
Flags: HW
LayerCount: 2
Fore
SplineSet
256 -10 m 3
 131 -10 32 72 32 195 c 3
 32 352 167 420 257 420 c 3
 359.752604167 420 429 372.079101563 429 310 c 3
 429 280.885091146 399 225.505617978 348 216 c 1
 405.857142857 194.517420015 429 158.387872024 429 133 c 3
 429 51.2858557735 346.571037046 -10 256 -10 c 3
265 29 m 3
 330.076812744 29 359 57.8 359 101 c 3
 359 135.928803609 341.820019523 172.214212975 251 189.653320312 c 1
 251 218.396484375 l 1
 350.197856212 227.688833356 356 253.920806974 356 293 c 3
 356 336.732666016 303.826544944 375 236 375 c 3
 156 375 108 305 108 228 c 3
 108 125 178 29 265 29 c 3
EndSplineSet
EndChar
StartChar: uni0264
Encoding: 612 612 1999
Width: 430
UnlinkRmOvrlpSave: 1
Flags: HW
LayerCount: 2
Fore
SplineSet
136 157 m 3
 136 99.3131264741 181.992647456 41 250 41 c 3
 290.737970524 41 311 72.0191731771 311 100 c 3
 311 162.693332891 132.039967257 366 76 366 c 3
 57.5263671875 366 49.89453125 344.5 39 323 c 1
 12 340 l 1
 33.77734375 378.368164062 71.568359375 421 110 421 c 3
 168.353231691 421 368 209.759676558 368 135 c 3
 368 64.0301067073 300.237633168 -9 227 -9 c 3
 145.717103085 -9 82 25.2858664773 82 111 c 3
 82 193.690948487 279.862068966 421 370 421 c 3
 391.375 421 413.1953125 401 427 378 c 1
 426 351 425 353 370 321 c 1
 356.516601562 341 338.064453125 361 326 361 c 3
 277.927422833 361 136 204.708235981 136 157 c 3
EndSplineSet
EndChar
StartChar: uni0269
Encoding: 617 617 1976
Width: 241
Flags: HW
LayerCount: 2
Fore
SplineSet
174 36 m 3
 189.416992188 36 208.200195312 45.9169921875 231 53 c 1
 237 22 l 1
 204.38671875 11.806640625 156.021484375 -22 126 -22 c 3
 91.5830078125 -22 72.7353515625 6.77734375 72.7353515625 58.0830078125 c 3
 72.7353515625 84.619140625 81 169.909179688 81 199 c 3
 81 219 82.7509765625 288.497070312 76 308 c 0
 67 334 62 336 44 336 c 3
 34 336 31 335 22 335 c 1
 20 364 l 1
 57.8955078125 371 95.7900390625 375 147 416 c 1
 168 401 l 1
 150.568359375 338.24609375 149.831054688 247.377929688 149.831054688 170 c 3
 149.831054688 114.548828125 156.263671875 36 174 36 c 3
EndSplineSet
EndChar
StartChar: uni027E
Encoding: 638 638 1998
Width: 358
Flags: HW
AnchorPoint: "Top" 165.5 465 basechar 0
AnchorPoint: "Bottom" 145 -15 basechar 0
LayerCount: 2
Fore
SplineSet
160 352 m 0
 198 389 286.484375 422.183908046 294 423 c 1
 315 423 349 395 349 368 c 3
 349 337 320 316 281 316 c 1
 272.882352941 349.75 255.294117647 356 235 356 c 3
 221.829268293 356 188.816323543 344.734013813 175 324 c 0
 160 307 160 218.432989691 160 196 c 0
 160 157 161.185553521 61.3773357746 169 52 c 0
 179 40 189.018145158 36.3113659276 226 34 c 0
 242 33 260 33 274 32 c 1
 273 0 l 1
 234 1 162 4 120 4 c 3
 90 4 60 -1 30 -5 c 1
 28 28 l 1
 39 29 50 29 60 33 c 0
 70 37 84.7614449357 48.0180616964 87 76 c 0
 89 101 91 192 91 218 c 3
 91 261.152542373 119.735258602 312.794857059 160 352 c 0
EndSplineSet
EndChar
StartChar: uni0295
Encoding: 661 661 1981
Width: 262
Flags: HW
LayerCount: 2
Fore
SplineSet
40 357.729492188 m 0
 8.26086403183 380.681571882 -62 429.361052298 -62 531 c 3
 -62 661 44.2360515021 770 161 770 c 3
 209 770 258 750 289 727 c 1
 288 700 287 702 232 670 c 1
 194 690 142 710 108 710 c 3
 38 710 0 654 0 568 c 3
 0 508.016590879 23.0558848429 458.600492805 60.4697265625 427 c 0
 87.1138564576 404.495825172 171 376.026365467 171 287 c 3
 171 217.732421875 171 131.343794517 171 76 c 0
 173.888671875 48.078125 186.000044097 39.0001690342 209 33 c 0
 221.280299831 30.177734375 238.513513514 29 251 28 c 1
 249 -5 l 1
 219 -1 173 4 143 4 c 3
 101 4 57 -1 18 -7 c 1
 13 27 l 1
 25.5416666667 28 41.6667425799 28.9996610538 56 33 c 0
 66.8466796875 35.7119140625 85.8535897389 39.0200156679 88 54 c 0
 99.5139973958 84.6626125819 102 189.333621895 102 257 c 3
 102 329.530975427 68.1201568463 337.394468525 40 357.729492188 c 0
EndSplineSet
EndChar
StartChar: hookabovecomb
Encoding: 777 777 748
Width: 0
Flags: HW
AnchorPoint: "Top" -221.5 504 mark 0
AnchorPoint: "TopMark" -219.5 699 basemark 0
AnchorPoint: "TopMark" -221.5 505 mark 0
LayerCount: 2
Fore
SplineSet
-285.815429688 637.254882812 m 1
 -280.595426739 669.445072363 -248.207048447 690.325195312 -216.650390625 690.325195312 c 3
 -179.664448853 690.325195312 -156.184570312 659.543480106 -156.184570312 636.384765625 c 3
 -156.184570312 582.206689697 -210.559570312 597.234985352 -210.559570312 566.78515625 c 3
 -210.559570312 548.998899135 -208.410466531 535.004299275 -205.33984375 526.764648438 c 1
 -213.169921875 520.674804688 l 1
 -223.059142683 529.903364313 -240.139648438 549.85854002 -240.139648438 567.655273438 c 3
 -240.139648438 614.634916922 -193.6796875 583.315154599 -193.6796875 629.424804688 c 3
 -193.6796875 650.175485832 -203.408873794 677.275390625 -225.349609375 677.275390625 c 3
 -239.773211875 677.275390625 -242.708989376 652.524567277 -241.969726562 629.424804688 c 1
 -251.120487196 629.424804688 -275.521432943 629.424804688 -285.815429688 637.254882812 c 1
EndSplineSet
EndChar
StartChar: uni0315
Encoding: 789 789 113
Width: 0
Flags: HW
AnchorPoint: "TopRight" -110.5 531 mark 0
LayerCount: 2
Fore
SplineSet
-49.75 730.245117188 m 1
 -8.75 720.245117188 l 1
 -22.3867979021 657.436585347 -59.6085214452 580.670714276 -112 529.494140625 c 1
 -120 539.494140625 l 1
 -78.6764581132 596.264899384 -58.8145298113 661.57512189 -49.75 730.245117188 c 1
EndSplineSet
EndChar
StartChar: uni031B
Encoding: 795 795 99
Width: 0
Flags: HW
AnchorPoint: "Horn" -73.5 341.8 mark 0
LayerCount: 2
Fore
SplineSet
12.8818359375 414.884765625 m 3
 12.8818359375 428.595703125 2.005859375 439.401367188 -15.744140625 450.72265625 c 1
 -6.4501953125 476.256835938 12.16015625 492.322265625 32.20703125 492.322265625 c 3
 58.421875 492.322265625 75.625 468.857421875 75.625 444.775390625 c 3
 75.625 401.475637139 -6.40890650401 337.224078323 -73.9999983559 330.561695004 c 0
 -77.5443502406 330.212331941 -81.0489878559 330.021325271 -84.5 330 c 1
 -85 348 l 1
 -81.3939546618 348.12104869 -77.7150547845 348.468830552 -74.0000010773 349.022429666 c 0
 -32.7840551548 355.164228125 12.8818359375 386.638764083 12.8818359375 414.884765625 c 3
EndSplineSet
EndChar
StartChar: uni032B
Encoding: 811 811 696
Width: 0
Flags: HW
AnchorPoint: "Bottom" -193 -15 mark 0
LayerCount: 2
Fore
SplineSet
-305 -86.3505859375 m 1
 -291.7421875 -82.58984375 l 1
 -285.349738282 -116.165905354 -266.266708342 -133.006835938 -247.12109375 -133.006835938 c 0
 -227.977232253 -133.006835938 -208.770716835 -117.233905065 -202.079101562 -85.58984375 c 1
 -187.7421875 -85.58984375 l 1
 -181.349738282 -117.167905354 -162.267589816 -133.006835938 -143.12109375 -133.006835938 c 0
 -123.977194747 -133.006835938 -104.770906436 -116.235905065 -98.0791015625 -82.58984375 c 1
 -84.8212890625 -86.3505859375 l 1
 -93.2815739842 -147.267441172 -118.277206783 -177.7265625 -143.196289062 -177.7265625 c 0
 -162.747028898 -177.7265625 -182.253673464 -158.452148438 -195.0546875 -119.903320312 c 1
 -208.034707 -158.452148438 -227.636783213 -177.7265625 -247.196289062 -177.7265625 c 0
 -272.068022637 -177.7265625 -296.862253867 -147.267441172 -305 -86.3505859375 c 1
EndSplineSet
EndChar
StartChar: uni0377
Encoding: 887 887 960
Width: 493
Flags: HW
LayerCount: 2
Fore
SplineSet
117 -9 m 3
 85 -9 64 19 64 105 c 3
 64 175.926136364 91 291.647727273 91 324 c 3
 91 345 81 359 66 359 c 3
 40 359 28 319 22 312 c 1
 0 324 l 1
 3 332 26 418 96 418 c 3
 116.76056338 418 163 407 163 333 c 3
 163 266.64516129 132 175.569892473 132 91 c 3
 132 63 140 59 151 59 c 3
 180.440918534 59 218.358147864 174.071762711 231.547851562 209 c 0
 259.906171475 282.929088615 294.106407457 418 376 418 c 3
 408 418 429 390 429 304 c 3
 429 233.07421875 402 117.352539062 402 85 c 3
 402 64 412 50 427 50 c 3
 453 50 465 90 471 97 c 1
 493 85 l 1
 490 77 467 -9 397 -9 c 3
 376.23943662 -9 330 2 330 76 c 3
 330 142.354492188 361 233.4296875 361 318 c 3
 361 346 353 350 342 350 c 3
 311.736671542 350 272.638813616 230.454743188 259.189453125 195 c 0
 231.17231089 121.783255884 197.500966277 -9 117 -9 c 3
EndSplineSet
EndChar
StartChar: uni03D8
Encoding: 984 984 1036
Width: 793
Flags: HW
AnchorPoint: "Top" 401 695 basechar 0
AnchorPoint: "Middle" 404.697 364.853 basechar 0
AnchorPoint: "Bottom" 397 -151 basechar 0
LayerCount: 2
Fore
SplineSet
433.641601562 -5.8779296875 m 1
 434.020799731 -38.1176402112 432.769092842 -71.2260320675 435 -105 c 0
 436.859345583 -132.473378273 460.363636364 -131.35 525 -139 c 1
 524 -162 l 1
 438.91318328 -151 335.292604502 -149 262 -163 c 1
 257 -140 l 1
 327.714285714 -128.382978723 353.249480904 -138.151837807 356 -98 c 0
 357.949377746 -69.0669536042 357.896484375 -38.0183414929 358.678710938 -5.5048828125 c 1
 433.641601562 -5.8779296875 l 1
EndSplineSet
Refer: 40 79 N 1 0 0 1 0 0 2
Position2: "cpsp-1" dx=0 dy=0 dh=50 dv=100
EndChar
StartChar: uni03D9
Encoding: 985 985 1037
Width: 510
UnlinkRmOvrlpSave: 1
Flags: HW
LayerCount: 2
Fore
SplineSet
288.537109375 6.7001953125 m 1
 286.8359375 -67.3759765625 283.513671875 -153.163085938 281 -214 c 1
 281 -214 214.721679688 -226 204 -226 c 1
 204 -203.36328125 217.919921875 -70.5732421875 224.240234375 8.7001953125 c 1
 288.537109375 6.7001953125 l 1
EndSplineSet
Refer: 1017 959 N 1 0 0 1 -4.375e-07 0 2
EndChar
StartChar: uni03DB
Encoding: 987 987 1039
Width: 670
Flags: HW
LayerCount: 2
Fore
SplineSet
49 148 m 3
 49 240.928710938 92.3955078125 307.729492188 148.381835938 353 c 0
 193.8359375 389.75390625 232.884765625 400 340 400 c 3
 443.479492188 400 459.6640625 392 584 392 c 3
 612.099609375 392 625 397 625 424 c 1
 634 425 640 426 649 427 c 1
 653 409 658 400.384765625 658 382 c 3
 658 323.364257812 585.228515625 305 526 305 c 3
 375.400390625 305 294.594726562 313 257 313 c 3
 157.340820312 313 97 267.346679688 97 199 c 3
 97 107.576171875 154.176757812 89 217 89 c 3
 236.72265625 89 248 92 268 92 c 3
 352.201171875 92 364 41.9248046875 364 -11 c 3
 364 -92.029296875 299.461914062 -155 259 -155 c 3
 230.8125 -155 212.596679688 -127.041992188 205 -94 c 1
 220.028320312 -79.154296875 239.80078125 -73.6259765625 260.19140625 -73.6259765625 c 3
 273.934570312 -73.6259765625 287.958984375 -76.1376953125 301 -80 c 1
 315.611328125 -69 318 -57.4013671875 318 -41 c 3
 318 -4.7646484375 304.826171875 1 235 1 c 3
 124.700195312 1 98.6123046875 18.4384765625 79 43.5361328125 c 0
 60.447265625 67.2783203125 49 98.3193359375 49 148 c 3
EndSplineSet
EndChar
StartChar: uni03E2
Encoding: 994 994 1770
Width: 745
UnlinkRmOvrlpSave: 1
Flags: HW
LayerCount: 2
Fore
SplineSet
627 199 m 1
 663.470588235 216.083333333 683.529411765 222.916666667 720 240 c 1
 720 58.0729927007 657.726682562 -162 464 -162 c 3
 348.059561651 -162 286.476709355 -132 170 -132 c 3
 153.636083055 -132 132 -135.155495574 132 -165 c 3
 132 -177.281768469 141.747222222 -186.214285714 154 -192 c 1
 152 -206 150 -214 148 -228 c 1
 121.818181818 -220.210758377 84 -192.158853169 84 -155 c 3
 84 -90.1330250093 139.362038139 -51 195 -51 c 3
 335.185591271 -51 411.32967443 -78 552 -78 c 3
 668.610599394 -78 627.192086903 152.857942431 627 199 c 1
519 39 m 3
 578.717460938 39 627 106.096153846 627 199 c 0
 627 430.557239601 525.870850412 424.315235343 510.999023438 695.245117188 c 1
 591.33844198 695.487304688 667.244607882 698.896484375 677.385742188 706 c 1
 674.380859375 653.461487409 676.53125 599.871264411 686 558 c 1
 646 553 l 1
 646 585.268907563 643 611.183629007 599 617 c 1
 588.761597929 618.398830456 576.527951903 619.359507712 563.619140625 619.892578125 c 1
 567.228994471 483.613363015 720 450.890560628 720 240 c 0
 720 109.019586348 617.10591468 -9.86328125 492 -9.86328125 c 3
 393.219453367 -9.86328125 328 117.628256089 328 216 c 3
 328 278.337960811 335.6 320.666666667 344 373 c 1
 370.274509804 373 384.725490196 373 411 373 c 1
 419.666666667 320.666666667 427 279.030113727 427 216 c 3
 427 111.247911715 356.776724423 -10 230 -10 c 3
 118.751234802 -10 29 102.464878015 29 240 c 0
 29 449.414059326 189.905160501 494.546195695 198.216796875 619.943359375 c 1
 178.050518954 619.618191916 160.305545639 618.707412876 147 618 c 0
 117 615.657657658 114 584.036036036 109 553 c 1
 66 557 l 1
 80.4287109375 615.5006559 83.5283203125 656.67574724 79.1884765625 706 c 1
 90.4230705838 699.697265625 167.220955252 695.974609375 248.009765625 695.344726562 c 1
 233.072743833 431.796104637 130 490.656149958 130 260 c 0
 130 148.188718441 182.299527572 39.6884765625 248 39.6884765625 c 3
 325.80462195 39.6884765625 363.884615385 136.989009034 379 200 c 1
 390.313131313 137.133333333 419.994132714 39 519 39 c 3
EndSplineSet
EndChar
StartChar: uni03F0
Encoding: 1008 1008 1042
Width: 482
UnlinkRmOvrlpSave: 1
Flags: HW
LayerCount: 2
Fore
SplineSet
50 308 m 1
 34.0908203125 325.1640625 25 342.232421875 25 367 c 3
 25 398.780273438 59.7587890625 412 91 412 c 3
 167.576171875 412 179 313.026367188 179 236 c 3
 179 79.953125 126.5703125 -12 79 -12 c 3
 53.4462890625 -12 35 7.1669921875 35 28 c 3
 35 63.4658203125 53.9130859375 83.451171875 81 108 c 0
 183 200.444335938 257 264.444335938 342 364 c 1
 331.125 301.4296875 313 267.771484375 313 204 c 3
 313 143.967773438 326.528320312 66 381 66 c 3
 407.344726562 66 419.233398438 92.7138671875 443 110 c 1
 447 107 449 105 453 102 c 1
 449 46 417.920898438 -12 361 -12 c 3
 287 -12 281 85.939453125 281 160 c 3
 281 263.818359375 326.3515625 410 381 410 c 3
 401.403320312 410 419 395.348632812 419 375 c 3
 419 341.469726562 398.327148438 323.8359375 375 298 c 0
 284.2265625 197.462890625 220.078125 144.125976562 121 56 c 1
 139.173828125 122.111328125 147 158.296875 147 226 c 3
 147 269.595703125 138.111328125 331 103 331 c 3
 81.2060546875 331 66.0244140625 328.700195312 50 308 c 1
EndSplineSet
EndChar
StartChar: afii10051
Encoding: 1026 1026 1229
Width: 818
Flags: HW
LayerCount: 2
Fore
SplineSet
685 263 m 0
 668.071428571 340 628.571428571 392 527 392 c 0
 468.425414365 392 396.624309392 364 356 328 c 1
 354 277 351 259 351 194 c 0
 351 123 354.219405222 78.0253529982 357 53 c 0
 359 35 381.948622236 34.6314222205 395 33 c 0
 403 32 420 28 429 27 c 1
 424 -5 l 1
 381 0 349 2 303 2 c 0
 272 2 236 -3 205 -6 c 1
 201 25 l 1
 214 27 222.97918472 26.0502525317 235 31 c 0
 252 38 259.904109808 48.0091346801 263 80 c 0
 269 142 274 271 274 349 c 0
 274 413.366275865 273.093222651 595.374981448 272.143145392 634.262422707 c 1
 222.095869512 634.124541096 173.033687108 632.173079754 124 628 c 0
 77 624 74 628 37 554 c 1
 -2 573 l 1
 18 612 47 691 58 713 c 1
 81 695 103.00174793 685.277319043 125 685 c 0
 237.170094588 683.5859375 349.340189175 682.171875 461.827148438 682.171875 c 0
 513.815729984 682.171875 565.861680911 683 618 683 c 0
 634 683 649 689 656 698 c 1
 681 682 l 1
 667 646 650 606 648 559 c 1
 611 565 l 1
 617 595 l 2
 626.469515359 642.347576794 435.442970814 633.805700871 365.59818405 633.051208914 c 1
 352.444871415 564.245857947 358.83653674 487.04017537 354 370 c 1
 421.008547009 418 527.264957265 450 578 450 c 0
 703.56097561 450 770.220996815 381.141467681 773 284 c 0
 773.952473958 252.329896907 775.857421875 237.81443299 775.857421875 156 c 3
 775.857421875 38.8947195443 775.126012225 -30.1617330014 750.6328125 -84 c 0
 732.977247305 -122.80852823 702.974972619 -153.709634341 652 -189 c 0
 613 -216 576 -241 517 -241 c 3
 485 -241 435 -230 410 -208 c 1
 411.224489796 -178.046875 410 -178.046875 470 -137 c 1
 509 -155 532.349151158 -179 578 -179 c 3
 610.844730981 -179 635.881347744 -170.023333561 652.325195312 -152 c 0
 678.546232944 -123.260344905 691.678710938 -74.5870346644 691.678710938 -20 c 3
 691.678710938 60.6977755752 699.145608242 202.488231407 685 263 c 0
EndSplineSet
Position2: "cpsp-1" dx=0 dy=0 dh=50 dv=100
EndChar
StartChar: afii10058
Encoding: 1033 1033 1275
Width: 928
Flags: HW
AnchorPoint: "Top" 402 699 basechar 0
LayerCount: 2
Fore
SplineSet
616 349 m 0
 499 349 l 1
 500 251 500.405273438 155.012695312 502 96 c 0
 503 59 507.606445312 44.9228515625 534 41 c 0
 547.45703125 39 608.012695312 34 643 34 c 3
 722.505859375 34 783 83 783 178 c 3
 783 262 734.810546875 349 616 349 c 0
214 694 m 1
 241.11921875 688.213867188 267.065136622 685.42975968 293 685 c 0
 350.291800259 684 413.98725042 683.529296875 437.505859375 683.529296875 c 3
 480.064453125 683.529296875 527.725585938 686.141601562 582 692 c 1
 584 649 l 1
 539.33984375 647 508.999023438 651.977539062 507 616 c 0
 501.870117188 523.665039062 501 379 501 379 c 1
 572.017578125 379 634.251953125 379.70703125 693 371.883789062 c 0
 808.134765625 356.551757812 873 273.93359375 873 181 c 3
 873 70 779.59765625 -4 634 -4 c 3
 571.724609375 -4 512.974609375 2 446 2 c 3
 387 2 342 -2 335 -2 c 1
 332 34 l 1
 379 36 416 35.9462890625 416 73 c 0
 416 78 419 176 419 292 c 3
 419 462.579101562 417.669921875 530.948242188 415 616 c 0
 414.435546875 633.98046875 399 643 388 643 c 3
 355.314941406 643 328.663574219 643.643554688 292 637 c 0
 276.86328125 633.102539062 257.204101562 618.301757812 253.963867188 592 c 0
 247.586770434 509.276192233 234.427453912 348.218158337 223 230 c 0
 215.527068143 152.691769463 196.94899167 80.6436137915 157 43 c 0
 124.762695312 12.623046875 93.9482421875 -9 45 -9 c 3
 21.9716796875 -9 -14.009765625 2 -32 24 c 1
 -30.775390625 55.640625 -32 55.640625 28 99 c 1
 56.1669921875 85.7138671875 73.0302734375 68 106 68 c 3
 153.660677601 68 173.456086307 157.421130283 180.265625 224.524414062 c 0
 200.194744231 415.637302405 213.51542921 635.242407576 214 694 c 1
EndSplineSet
Position2: "cpsp-1" dx=0 dy=0 dh=50 dv=100
EndChar
StartChar: afii10059
Encoding: 1034 1034 1276
Width: 1035
UnlinkRmOvrlpSave: 1
Flags: HMW
AnchorPoint: "Top" 427 699 basechar 0
AnchorPoint: "Bottom" 419 -15 basechar 0
LayerCount: 2
Fore
SplineSet
745 337 m 0
 628 337 l 1
 629 243.648221344 629.405273438 152.213674191 631 96 c 0
 632 59 636.606445312 44.9228515625 663 41 c 0
 676.45703125 39 737.012695312 34 772 34 c 3
 851.505859375 34 912 83 912 178 c 3
 912 256.105263158 863.810546875 337 745 337 c 0
636 616 m 0
 630.870117188 521.717044106 630 374 630 374 c 1
 701.017578125 374 763.251953125 374.70703125 822 366.883789062 c 0
 937.134765625 351.953364238 1002 271.49929605 1002 181 c 3
 1002 70 908.59765625 -4 763 -4 c 3
 700.724609375 -4 641.974609375 2 575 2 c 3
 516 2 471 -2 464 -2 c 1
 461 34 l 1
 508 36 545 35.9462890625 545 73 c 0
 545 78 548 176 548 292 c 3
 548 462.579101562 547.145507812 531.05859375 544 616 c 0
 543 643 529 643 456 657 c 1
 461 688 l 1
 534.293945312 681.428710938 622 681.571289062 734 692 c 1
 736 649 l 1
 678 647 638 652 636 616 c 0
602 334 m 9
 185 334 l 1
 184 242.641414482 181 136.056565793 186 65 c 0
 188 29 240 33 272 26 c 9
 272 26 268 3 267 -11 c 1
 171 5 98 8 19 -9 c 9
 19 -9 14 15 12 33 c 1
 48 39 88 39 89 65 c 0
 101 252.333007812 106 585.805664062 94 627 c 0
 87 649 55 649 17 654 c 9
 20 692 l 1
 106 681 175 678 277 688 c 1
 279 651 l 1
 252 647 200 647 198 632 c 0
 192 597.033452773 188 474.175994185 186 374 c 9
 602 374 l 1
 602 334 l 9
EndSplineSet
Position2: "cpsp-1" dx=0 dy=0 dh=50 dv=100
EndChar
StartChar: afii10028
Encoding: 1050 1050 1271
Width: 717
Flags: HW
AnchorPoint: "Top" 346 699 basechar 0
AnchorPoint: "Bottom" 370 -15 basechar 0
LayerCount: 2
Fore
SplineSet
475 39 m 0
 338 138.147601476 313 284.313653137 189 316 c 1
 189 235 191.437873927 134.085710579 194 79 c 0
 196 36 228 34 287 20 c 1
 283 -10 l 1
 206 2 126 7 26 -5 c 1
 23 28 l 1
 78 29 99.8448476065 35.0089550282 102 71 c 0
 112 238 112.21927907 417.969825563 106 589 c 0
 104 644 89 645 26 657 c 1
 32 688 l 1
 112 676 201 679 280 689 c 1
 283 657 l 1
 225 652 200.572216385 651.213235274 198 608 c 0
 193 524 189 444 189 357 c 1
 271 433 354.498427689 504.498427689 434 584 c 0
 445 595 457.218129963 603.01698915 458 621 c 0
 459 644 438 650 401 656 c 1
 402 683 l 1
 466 676 547 678 615 692 c 1
 624 656 l 1
 583 646 557.202657177 634.771155163 529 610 c 0
 441.333333333 533 352.724014337 456.950617284 266 379 c 1
 398 322.103448276 466.73025241 131.957842319 589 49 c 0
 619.213940145 28.5003806597 660.554455446 20.671875 688 12 c 1
 684 -12 l 1
 673.389473684 -12 658.725351937 -14 648 -14 c 3
 582.379310345 -14 513.879839224 10.8624612782 475 39 c 0
EndSplineSet
Position2: "cpsp-1" dx=0 dy=0 dh=50 dv=100
EndChar
StartChar: afii10044
Encoding: 1066 1066 1264
Width: 728
Flags: HW
LayerCount: 2
Fore
SplineSet
456 349 m 0
 339 349 l 1
 340 251 340.405273438 155.012695312 342 96 c 0
 343 59 347.606445312 44.9228515625 374 41 c 0
 387.45703125 39 448.012695312 34 483 34 c 3
 562.505859375 34 623 83 623 178 c 3
 623 262 574.810546875 349 456 349 c 0
277.505859375 683.529296875 m 3
 320.064453125 683.529296875 367.725585938 686.141601562 422 692 c 1
 424 649 l 1
 379.33984375 647 348.999023438 651.977539062 347 616 c 0
 341.870117188 523.665039062 341 379 341 379 c 1
 412.017578125 379 474.251953125 379.70703125 533 371.883789062 c 0
 648.134765625 356.551757812 713 273.93359375 713 181 c 3
 713 70 619.59765625 -4 474 -4 c 3
 411.724609375 -4 352.974609375 2 286 2 c 3
 227 2 182 -2 175 -2 c 1
 172 34 l 1
 219 36 256 35.9462890625 256 73 c 0
 256 78 259 176 259 292 c 3
 259 462.579101562 258.000976562 530.958984375 255 616 c 0
 254.435546875 633.98046875 239 643 228 643 c 3
 193.272460938 643 160.211914062 641.639648438 126 637 c 0
 80.3701171875 630.8125 77.1494140625 637 41 565 c 1
 2 584 l 1
 21.3330078125 619.935546875 49.3662109375 692.728515625 60 713 c 1
 83 695 105.003690602 685.378037341 127 685 c 0
 185.185546875 684 253.010742188 683.529296875 277.505859375 683.529296875 c 3
EndSplineSet
Position2: "cpsp-1" dx=0 dy=0 dh=50 dv=100
EndChar
StartChar: afii10048
Encoding: 1070 1070 1260
Width: 1030
UnlinkRmOvrlpSave: 1
Flags: HW
LayerCount: 2
Fore
SplineSet
626.69140625 660 m 3
 508.877632637 660 413.624023438 543 413.624023438 381 c 3
 413.624023438 201 533.940737711 35 676.973632812 35 c 3
 804.757112401 35 887.440429688 169 887.440429688 320 c 3
 887.440429688 500 769.683203535 660 626.69140625 660 c 3
658.768554688 709 m 3
 838.22265625 709 983 543 983 340 c 3
 983 144 846.025390625 -15 660.501953125 -15 c 3
 474.978515625 -15 325 143 325 340 c 3
 325 537 476.712890625 709 658.768554688 709 c 3
EndSplineSet
Refer: 34 73 N 0.921136 0 0 1 2.83912 0 2
Refer: 1968 58114 N 0.16 0 0 0.913043 188 341 2
Position2: "cpsp-1" dx=0 dy=0 dh=50 dv=100
EndChar
StartChar: afii10077
Encoding: 1083 1083 1250
Width: 486
Flags: HW
LayerCount: 2
Fore
SplineSet
452.200195312 409.400390625 m 1
 453.599609375 373.299804688 l 1
 424.71603695 371.900390625 407.28654843 378.762156067 403.799804688 350.200195312 c 0
 396.099609375 286.265196328 393.107456999 189.585686788 398.200195312 52.2001953125 c 0
 399.225939259 24.900390625 425.900322386 28.400390625 453.599609375 27 c 1
 452.900390625 -6.2998046875 l 1
 391.065429688 1.400390625 315.762695312 2.7998046875 262.5 -7 c 1
 259 27 l 1
 290.865984284 27 321.133879489 30.9537181786 322.200195312 59.900390625 c 0
 325.234711477 143.433250987 328.192345815 236.38617929 320.799804688 348.799804688 c 0
 320.099609375 359.299804688 310.4296875 369.099609375 303.299804688 369.099609375 c 3
 283.484182988 369.099609375 267.088630569 370.951985798 245.099609375 364.900390625 c 0
 234.50390625 362.171875 220.612001334 351.826832701 218.474609375 333.400390625 c 0
 214.010742188 294.003338179 202.146192753 217.629457194 196.799804688 161 c 0
 191.569335938 106.883789062 178.730017545 56.2733748935 150.599609375 30.099609375 c 0
 126.595047141 8.8359375 103.649066674 -6.2998046875 67.2001953125 -6.2998046875 c 3
 51.080078125 -6.2998046875 25.8935546875 1.400390625 13.2998046875 16.7998046875 c 1
 14.1572265625 51.6044921875 13.2998046875 51.6044921875 55.2998046875 99.2998046875 c 1
 75.0166015625 90 86.8212890625 77.599609375 109.900390625 77.599609375 c 3
 143.262695312 77.599609375 155.464541211 123.199036102 161.885742188 157.166992188 c 0
 175.8359375 260.415414225 185.161132812 379.056511082 185.5 410.799804688 c 1
 204.483398438 406.75 222.647954618 404.919401795 240.799804688 404.5 c 0
 271.104492188 403.799804688 333.030273438 403.470703125 341.954101562 403.470703125 c 3
 368.998046875 403.470703125 374.040039062 403.299804688 452.200195312 409.400390625 c 1
EndSplineSet
EndChar
StartChar: afii10090
Encoding: 1096 1096 1242
Width: 640
Flags: HW
LayerCount: 2
Fore
SplineSet
498.540039062 48.2890625 m 0
 507.92058131 144.608724984 508.409625709 227.992844498 503.5703125 336.55859375 c 0
 502.320251623 371.477539062 484.137337772 370.640625 466.134765625 379.387695312 c 1
 469.336914062 401.794921875 l 1
 516.356016558 392.094726562 563.416219668 392.17578125 613.818359375 405.826171875 c 1
 618 381.611328125 l 1
 592.495117188 374.231445312 584.260220071 372.214321745 581.387695312 346.34375 c 0
 571.643554688 258.5859375 570.265650583 78.2035587135 577.073242188 48.5888671875 c 0
 583.848632812 19.1142578125 600.6640625 18.0927734375 617.08984375 15.0908203125 c 1
 617.08984375 15.0908203125 613.967773438 -1.025390625 614.463867188 -7.9599609375 c 1
 593.778061513 -3.41673363765 567.610866511 -0.7900390625 540.53515625 -0.7900390625 c 0
 512.22011681 -0.7900390625 126.663533314 -0.933183033591 95.3340124331 -0.933183033591 c 0
 69.3145650793 -0.933183033591 44.4993085456 -3.08054013831 23.25390625 -7.798828125 c 1
 23.25390625 -7.798828125 19.728515625 10.541015625 18.73828125 19.45703125 c 1
 37.7119140625 24.7314453125 61.1425408197 23.7436003003 64.1923828125 53.2841796875 c 0
 74.310546875 151.288085938 72.3848129111 330.850955352 68.603515625 349.920898438 c 0
 63.859375 373.846679688 43.5869140625 375.33203125 21.779296875 378.489257812 c 1
 23.6689453125 403.361328125 l 1
 78.5950895381 398.09375 123.414815877 393.48046875 182.388671875 401.137695312 c 1
 183.782226562 376.922851562 l 1
 173.454111469 373.938476562 151.658528329 372.745433779 149.208984375 360.094726562 c 0
 134.125921449 298.694623 139.140725881 125.352517184 141.74609375 46.671875 c 0
 142.7315742 34.5187000354 176.400422463 28.572265625 211.083007812 28.572265625 c 3
 246.792755063 28.572265625 283.582519031 35.2452844175 286.540039062 48.2890625 c 0
 295.92058131 144.608724984 296.409625709 227.992844498 291.5703125 336.55859375 c 0
 290.320251623 371.477539062 272.137337772 370.640625 254.134765625 379.387695312 c 1
 257.336914062 401.794921875 l 1
 301.101681554 392.094726562 344.904704961 392.17578125 391.818359375 405.826171875 c 1
 396 381.611328125 l 1
 377.46132241 374.231445312 371.475641011 372.214321745 369.387695312 346.34375 c 0
 359.643554687 257.112278837 358.265650582 73.7008585604 365.073242188 43.5888671875 c 0
 371.541968933 32.964907319 400.220276045 28.0908203125 429.39453125 28.0908203125 c 3
 462.19264791 28.0908203125 495.620473257 35.3120500736 498.540039062 48.2890625 c 0
EndSplineSet
EndChar
StartChar: afii10091
Encoding: 1097 1097 1243
Width: 668
Flags: HW
LayerCount: 2
Fore
SplineSet
542.545898438 -0.2880859375 m 1
 514.23046875 -0.2880859375 126.663085938 -0.93359375 95.333984375 -0.93359375 c 0
 69.314453125 -0.93359375 44.4990234375 -3.080078125 23.25390625 -7.798828125 c 1
 23.25390625 -7.798828125 19.728515625 10.541015625 18.73828125 19.45703125 c 1
 37.7119140625 24.7314453125 61.142578125 23.7431640625 64.1923828125 53.2841796875 c 0
 74.310546875 151.288085938 72.384765625 330.850585938 68.603515625 349.920898438 c 0
 63.859375 373.846679688 43.5869140625 375.33203125 21.779296875 378.489257812 c 1
 23.6689453125 403.361328125 l 1
 78.5947265625 398.09375 123.415039062 393.48046875 182.388671875 401.137695312 c 1
 183.782226562 376.922851562 l 1
 173.454101562 373.938476562 151.658203125 372.745117188 149.208984375 360.094726562 c 0
 134.125976562 298.694335938 139.140625 125.352539062 141.74609375 46.671875 c 0
 142.731445312 34.5185546875 176.400390625 28.572265625 211.083007812 28.572265625 c 3
 246.79296875 28.572265625 283.58203125 35.2451171875 286.540039062 48.2890625 c 0
 295.920898438 144.608398438 296.409179688 227.993164062 291.5703125 336.55859375 c 0
 290.3203125 371.477539062 272.137695312 370.640625 254.134765625 379.387695312 c 1
 257.336914062 401.794921875 l 1
 301.1015625 392.094726562 344.904296875 392.17578125 391.818359375 405.826171875 c 1
 396 381.611328125 l 1
 377.4609375 374.231445312 371.475585938 372.213867188 369.387695312 346.34375 c 0
 359.643554688 257.112304688 358.265625 73.701171875 365.073242188 43.5888671875 c 0
 371.541992188 32.96484375 400.220703125 28.0908203125 429.39453125 28.0908203125 c 3
 462.192382812 28.0908203125 495.620117188 35.3125 498.540039062 48.2890625 c 0
 507.920898438 144.608398438 508.409179688 227.993164062 503.5703125 336.55859375 c 0
 502.3203125 371.477539062 484.137695312 370.640625 466.134765625 379.387695312 c 1
 469.336914062 401.794921875 l 1
 516.356445312 392.094726562 563.416015625 392.17578125 613.818359375 405.826171875 c 1
 618 381.611328125 l 1
 592.495117188 374.231445312 584.259765625 372.213867188 581.387695312 346.34375 c 0
 571.643554688 258.5859375 570.265743994 88.2031523536 577.073242188 58.5888671875 c 0
 583.848632812 29.1142578125 631.173828125 34.2021484375 647.599609375 31.2001953125 c 1
 647.599609375 -144 l 1
 620.200195312 -144 l 1
 606.57421875 -38.3974609375 591.873046875 -3.7109375 542.545898438 -0.2880859375 c 1
EndSplineSet
EndChar
StartChar: afii10092
Encoding: 1098 1098 1244
Width: 526
Flags: HW
LayerCount: 2
Fore
SplineSet
205 403 m 3
 237 403 280 405 310 409 c 1
 311 382 l 1
 305 382 279.897460938 380.353515625 269 377 c 0
 256 373 255.87109375 359.01171875 255 349 c 0
 250 291.5 250 236.090820312 249 234 c 1
 303 234 344.211914062 238.157226562 380 231 c 0
 440 219 490 177 490 121 c 1
 490 46.599609375 430 -3 339 -3 c 3
 300 -3 250 1 207 1 c 3
 172 1 138 -2 132 -2 c 1
 130 22 l 1
 142 23 177 26 177 55 c 0
 177 57.0703125 181 107.805664062 181 172 c 1
 181 258.658203125 176.107421875 333.974609375 176 335 c 0
 174.154296875 352.61328125 167.296875 366 152 366 c 27
 125.850585938 366 107.41796875 365.96484375 85 358 c 0
 56.9873046875 348.046875 55 346 33 311 c 1
 7 323 l 1
 22 354 41 403 49 420 c 1
 61 411 72.9814453125 403.365234375 96 403 c 0
 144.702148438 402 180.262695312 403 205 403 c 3
315 214 m 0
 289 215 248 215 248 215 c 1
 248 160.463867188 248.787109375 106.94921875 250 73 c 0
 251 45 254.318359375 36.560546875 268 32 c 0
 274 30 322 25 337 25 c 3
 386 25 412 60.5810546875 412 115 c 1
 412 165 382.21875 211.415039062 315 214 c 0
EndSplineSet
EndChar
StartChar: afii10050
Encoding: 1168 1168 1282
Width: 570
Flags: HW
AnchorPoint: "Bottom" 185 -15 basechar 0
AnchorPoint: "Top" 323 699 basechar 0
LayerCount: 2
Fore
SplineSet
209.612304688 680.974609375 m 3
 147.545898438 680.974609375 84.5693359375 682.208007812 29 685 c 1
 24 654 l 1
 97 640 111 640 112 613 c 0
 113.870153668 562.505850952 117.400390625 407.440429688 117.400390625 274.744140625 c 0
 117.400390625 186.280273438 116.599609375 107.799804688 115 77 c 1
 115 49 90 36 37 26 c 1
 47 -9 l 1
 107.5859375 0.939453125 150.249023438 6.1748046875 189.516601562 6.1748046875 c 0
 233.209960938 6.1748046875 272.69921875 -0.306640625 328 -14 c 1
 334 42 l 1
 222 42 214 64 210 81 c 0
 194.635574408 146.298808766 197 290 197 332 c 3
 197 487 196 509 201 604 c 0
 201.947517839 622.002838941 205 639 223 641 c 0
 243.71422373 643.301580414 265.67029772 645.272460938 288 645.272460938 c 3
 416.765549312 645.272460938 524.789945059 635.918827778 529 626.896484375 c 1
 545.364257812 636.522460938 550.146484375 644.52734375 550.146484375 665.071289062 c 0
 550.146484375 687.209960938 544.59375 723.911132812 542 792.896484375 c 1
 511 795.896484375 l 1
 500 759.896484375 504.194643814 712.238039344 468 701.896484375 c 0
 399.91186965 682.442303631 301.492143473 680.974609375 209.612304688 680.974609375 c 3
EndSplineSet
Position2: "cpsp-1" dx=0 dy=0 dh=50 dv=100
EndChar
StartChar: uni0593
Encoding: 1427 1427 2457
Width: 0
Flags: HW
AnchorPoint: "HbTop" 258.68 619.44 mark 0
LayerCount: 2
Fore
SplineSet
331.080078125 873.600585938 m 1
 337.34375 848.543945312 l 1
 269.483398438 825.576171875 l 1
 340.475585938 790.080078125 l 1
 340.475585938 769.200195312 l 1
 271.572265625 748.3203125 l 1
 341.51953125 714.912109375 l 1
 341.51953125 696.120117188 l 1
 182.83203125 643.919921875 l 1
 174.48046875 671.064453125 l 1
 248.603515625 690.900390625 l 1
 176.567382812 727.440429688 l 1
 176.567382812 748.3203125 l 1
 250.69140625 768.15625 l 1
 178.65625 802.608398438 l 1
 178.65625 825.576171875 l 1
 331.080078125 873.600585938 l 1
EndSplineSet
EndChar
StartChar: uni0596
Encoding: 1430 1430 2460
Width: 0
Flags: HW
AnchorPoint: "HbBottom" 257 0 mark 0
LayerCount: 2
Fore
SplineSet
240.436523438 -69.0048828125 m 1
 252.43359375 -139.4921875 277.172851562 -170.873046875 337.267578125 -190.983398438 c 1
 319.943359375 -227.831054688 l 1
 261.728515625 -201.78125 221.291992188 -164.205078125 216.487304688 -72.9677734375 c 1
 240.436523438 -69.0048828125 l 1
EndSplineSet
EndChar
StartChar: uni05A7
Encoding: 1447 1447 2477
Width: 0
Flags: HW
AnchorPoint: "HbBottom" 255 0 mark 0
LayerCount: 2
Fore
SplineSet
203 -79 m 3
 203 -52.736829941 237.263036684 -40 295.984375 -32 c 1
 298 -64 l 1
 275.014084507 -66 250 -74 250 -80 c 3
 250 -107.780448454 295 -114.988637831 295 -159 c 3
 295 -177.697471294 278.531567478 -200.125 197 -206 c 1
 194 -174 l 1
 239.338372787 -171.333333333 248 -161.114517101 248 -158 c 3
 248 -136 203 -125.010868281 203 -79 c 3
EndSplineSet
EndChar
StartChar: afii57797
Encoding: 1464 1464 2494
Width: 0
UnlinkRmOvrlpSave: 1
Flags: HW
AnchorPoint: "HbBottom" 282 0 mark 0
LayerCount: 2
Fore
SplineSet
298 -104 m 1
 298.608695652 -151.842519685 304.104194973 -186.666984498 312 -228 c 1
 300 -245 l 1
 280.409179688 -242.2746875 259.79296875 -240.382578125 246 -227 c 1
 260.165841239 -189.450761555 264.939034598 -147.142258075 265 -104 c 1
 298 -104 l 1
EndSplineSet
Refer: 2493 1463 N 1 0 0 1 0 0 2
EndChar
StartChar: uni05C4
Encoding: 1476 1476 2506
Width: 0
Flags: HW
AnchorPoint: "HbTop" 279 628 mark 0
LayerCount: 2
Fore
SplineSet
241.53125 788.198242188 m 1
 277.745117188 785.109375 314.6875 771.5703125 339.479492188 765.1015625 c 1
 329.75390625 720.930664062 323.451171875 693.31640625 314.297851562 664.06640625 c 1
 285.59375 667.852539062 252.618164062 676.823242188 220.594726562 686.263671875 c 1
 225.822265625 720.884765625 230.412109375 754.004882812 241.53125 788.198242188 c 1
EndSplineSet
EndChar
StartChar: afii57674
Encoding: 1498 1498 2520
Width: 485
Flags: HW
AnchorPoint: "HbTopLeft" 64.68 619.44 basechar 0
AnchorPoint: "HbBottom" 225 0 basechar 0
AnchorPoint: "HbMiddle" 228 284 basechar 0
AnchorPoint: "HbTop" 223 619.44 basechar 0
LayerCount: 2
Fore
SplineSet
188.182617188 570.520507812 m 3
 270.628580183 570.520507812 378.209193378 562.295898438 405.3203125 557.959960938 c 1
 409.959960938 504.599609375 413.440429688 451.240234375 415.759765625 399.040039062 c 1
 421.559570312 269.120117188 423.879882812 146.16015625 423.879882812 39.4404296875 c 0
 423.879882812 -30.16015625 422.719726562 -93.9599609375 421.559570312 -147.3203125 c 1
 404.739110542 -180.724772904 386.867206088 -214.129233307 373.200195312 -243.080078125 c 1
 356.360351562 -233.16015625 l 1
 370.280273438 18.4518365781 383.040039062 259.431902544 377.240234375 433.080078125 c 1
 285.88127113 441.200195312 186.92335 443.51953125 136.879882812 443.51953125 c 3
 100.686941803 443.51953125 45.2402343751 449.669565699 26.6796875 481.440429688 c 1
 60.3203125 602.040039062 l 1
 77.48046875 596.240234375 l 1
 111.075195312 567.278320313 98.6748046879 570.520507812 188.182617188 570.520507812 c 3
EndSplineSet
EndChar
StartChar: afii57675
Encoding: 1499 1499 2521
Width: 469
Flags: HW
AnchorPoint: "HbTopLeft" 121.68 619.44 basechar 0
AnchorPoint: "HbBottom" 206 0 basechar 0
AnchorPoint: "HbMiddle" 218 284 basechar 0
AnchorPoint: "HbTop" 230 619.44 basechar 0
LayerCount: 2
Fore
SplineSet
330.080078125 545.200195312 m 0
 341.66015625 538.810546875 374.208801318 473.715066341 391.559570312 424.559570312 c 0
 400.567382812 399.040039062 429.83984375 323.490234375 429.83984375 256.360351562 c 3
 429.83984375 166.995117188 304.005884564 -2.3203125 252.559570312 -2.3203125 c 3
 195.620246408 -2.3203125 105.83984375 -5.7998046875 105.83984375 -5.7998046875 c 1
 53.6396484375 -30.16015625 l 1
 38.2802734375 -22.0400390625 l 1
 56.83984375 89.599609375 l 1
 99.4914209752 120.491057477 136.888389454 121.400390625 305.639648438 121.400390625 c 3
 342.322265625 121.400390625 383.360351562 172.016445388 383.360351562 226.200195312 c 3
 383.360351562 251.115400311 366.749583601 313.717908338 356.629882812 337.599609375 c 0
 340.862304688 375.435538967 317.209511213 415.580489413 301 426.959960938 c 0
 285.446196481 438.268554688 205.217129536 442.901834495 163.559570312 446.6796875 c 0
 127.97265625 448.954132406 90.4501953126 461.74546826 81.2001953125 473.3203125 c 1
 114.83984375 596.240234375 l 1
 136.16015625 600.879882812 l 1
 168.639648438 575.360351562 l 1
 226.101626683 572.737304688 302.900780652 562.240857041 330.080078125 545.200195312 c 0
EndSplineSet
EndChar
StartChar: afii57678
Encoding: 1502 1502 2524
Width: 571
Flags: HW
AnchorPoint: "HbTopLeft" 100.68 619.44 basechar 0
AnchorPoint: "HbBottom" 310 0 basechar 0
AnchorPoint: "HbMiddle" 310 284 basechar 0
AnchorPoint: "HbTop" 303 619.44 basechar 0
LayerCount: 2
Fore
SplineSet
446.440429688 519.6796875 m 0
 472.965207472 487.200195312 527.120117188 320.69140625 527.120117188 232 c 3
 527.120117188 74.22265625 451.557298531 0 436 0 c 0
 262.400390625 2.3203125 l 1
 216.200195312 -22.0400390625 l 1
 200 -13.919921875 l 1
 217.400390625 96.7197265625 l 1
 253.022970541 124.54569639 281.622738566 118.719726562 421.959960938 118.719726562 c 3
 461.711153604 118.719726562 482.799804688 209.026664378 482.799804688 266.799804688 c 3
 482.799804688 303.245117188 439.810434747 376.922318525 430.799804688 392.080078125 c 0
 404.30424311 431.267828108 327.05092566 457.193359375 292.831054688 457.193359375 c 3
 275.218049104 457.193359375 253.952892875 456.959960938 249.040039062 455.799804688 c 0
 249.040039062 455.799804688 179.254716824 359.961037727 168.280273438 337.559570312 c 0
 138.845703125 277.4765625 141.599609375 170.51953125 126.51953125 90.48046875 c 1
 53.6396484375 -10.240234375 l 1
 40.599609375 0 l 1
 76.2216796875 212.07421875 100.600414124 286.894566474 117.545898438 322.48046875 c 0
 121.841796875 331.501953125 123.7890625 339.219726562 123.7890625 346.004882812 c 3
 123.7890625 375.495117188 69.6006384843 432.680128553 66.1201171875 440.799804688 c 0
 63.177734375 447.6640625 62.0498046875 457.952148438 62.0498046875 466.296875 c 3
 62.0498046875 503.875912466 82.3056640625 538.357878108 98.599609375 572.83984375 c 1
 114.599609375 571.6796875 l 1
 138.107985192 528.122999406 156.350973791 485.703448548 203 438 c 1
 301.599609375 573.040039062 l 1
 305.975585938 574.610351562 321.3203125 576.51953125 328.280273438 576.51953125 c 3
 359.516908805 576.51953125 417.032793414 555.689229234 446.440429688 519.6796875 c 0
EndSplineSet
EndChar
StartChar: afii57680
Encoding: 1504 1504 2526
Width: 330
UnlinkRmOvrlpSave: 1
Flags: HW
AnchorPoint: "HbMiddle" 151 284 basechar 0
AnchorPoint: "HbTopLeft" 105.68 619.44 basechar 0
AnchorPoint: "HbBottom" 171 0 basechar 0
AnchorPoint: "HbTop" 178 619.44 basechar 0
LayerCount: 2
Fore
SplineSet
103.240234375 590.440429688 m 1
 109.679812223 588.786877396 116.119992465 587.133325103 122.559570312 585.48046875 c 1
 127.200195312 578.51953125 134.16015625 571.559570312 138.799804688 565.759765625 c 1
 190.156225134 554.786419363 242.581924721 542.897697319 274.6796875 512.719726562 c 1
 258.919921875 399.799804688 l 1
 253.973133775 406.446219008 249.026866225 412.143031379 244.080078125 417.83984375 c 1
 182.240427194 427.531900178 118.110097456 434.316445753 89.48046875 468.240234375 c 1
 75.719650028 498.790068878 88.2293894937 544.615249283 103.240234375 590.440429688 c 1
73.080078125 96.7197265625 m 1
 105.91410921 121.926865492 127.032515429 120.150471517 234.76171875 119.698242188 c 1
 253.114738291 153.362051546 259.409179688 196.232970456 259.409179688 244.461914062 c 0
 259.409179688 310.418945312 245.862732966 363.786132812 228 419.919921875 c 1
 259.080078125 502.280273438 l 1
 265.213930879 472.256835938 272.889841281 442.633902467 276.799804688 412.959960938 c 0
 286.887615841 336.400390625 296.200195312 259.83984375 296.200195312 190.240234375 c 0
 296.200195312 120.639648438 284.513568368 56.83984375 252.639648438 3.48046875 c 1
 121.080078125 2.3203125 l 1
 68.8798828125 -22.0400390625 l 1
 55.6796875 -13.919921875 l 1
 73.080078125 96.7197265625 l 1
EndSplineSet
EndChar
StartChar: afii57681
Encoding: 1505 1505 2527
Width: 531
UnlinkRmOvrlpSave: 1
Flags: HW
AnchorPoint: "HbTopLeft" 91.68 619.44 basechar 0
AnchorPoint: "HbBottom" 250 0 basechar 0
AnchorPoint: "HbMiddle" 270 284 basechar 0
AnchorPoint: "HbTop" 255 619.44 basechar 0
LayerCount: 2
Fore
SplineSet
397.51953125 544.040039062 m 0
 420.42578125 525.118164062 488 345.737304688 488 254.040039062 c 3
 488 200.990234375 368.672637124 -17.400390625 204.16015625 -17.400390625 c 3
 149.688476562 -17.400390625 56.83984375 175.399414062 56.83984375 258.6796875 c 3
 56.83984375 320.753134685 75.6825669744 402.18876307 122.16015625 475.16015625 c 1
 150.919921875 461.959960938 l 1
 115.689891624 406.016832663 98.83984375 351.842639182 98.83984375 315.51953125 c 3
 98.83984375 253.809936757 194.834607497 113.559570312 242.879882812 113.559570312 c 3
 307.673457994 113.559570312 440.146484375 185.046123269 440.146484375 268.395507812 c 3
 440.146484375 311.700879146 395.713125198 414.174547337 379.559570312 425.959960938 c 0
 356.79390538 442.569479957 221.606341768 443.731135218 136.719726562 447.6796875 c 1
 106.559570312 453.48046875 76.4003906252 468.559570312 46.240234375 482.48046875 c 1
 80.0400390625 597.400390625 l 1
 99.2001953125 602.040039062 l 1
 114.280273438 577.6796875 l 1
 215.437086712 574.754882812 371.961555522 565.152391454 397.51953125 544.040039062 c 0
EndSplineSet
EndChar
StartChar: afii57684
Encoding: 1508 1508 2530
Width: 481
UnlinkRmOvrlpSave: 1
Flags: HW
AnchorPoint: "HbMiddle" 285 284 basechar 0
AnchorPoint: "HbTopLeft" 131.68 619.44 basechar 0
AnchorPoint: "HbBottom" 224 0 basechar 0
AnchorPoint: "HbTop" 259 619.44 basechar 0
LayerCount: 2
Fore
SplineSet
165.48046875 464 m 1
 136.48046875 417.779692672 128.360351562 370.484347164 120.240234375 312.440429688 c 1
 114.83984375 362.200195312 l 1
 140.5 341.78184598 174.055780679 327.035101188 217.48046875 317.959960938 c 1
 202.919921875 228.559570312 l 1
 99.599609375 245.959960938 l 1
 87.9977151665 291.186213887 77.450700058 336.413395487 79.5595703125 381.639648438 c 1
 100.073200149 424.559570312 124.689210561 450.080078125 148.280273438 477.919921875 c 1
 165.48046875 464 l 1
143.48046875 256.080078125 m 1
 72.7197265625 229.400390625 l 1
 62.16015625 247.080078125 l 1
 106.240234375 310.879882812 l 1
 143.48046875 256.080078125 l 1
360.061523438 399.696289062 m 0
 333.202409533 434.852539062 210.440470081 446.317382812 131.080078125 455.280273438 c 1
 129.919921875 596.240234375 l 1
 147.240234375 600.879882812 l 1
 163.48046875 576.51953125 l 1
 243.792431288 572.64453125 359.951752607 552.088924522 384.599609375 519.6796875 c 0
 405.126953125 494.82421875 443.759765625 284.208007812 443.759765625 196.040039062 c 3
 443.759765625 119.4453125 375.770507812 0 338.200195312 0 c 3
 277.542580142 0 82.7998046875 -9.2802734375 82.7998046875 -9.2802734375 c 1
 30.599609375 -33.6396484375 l 1
 17.400390625 -25.51953125 l 1
 34.7998046875 86.1201171875 l 1
 88.82104174 121.492691322 140.644867024 122.684570312 352.056640625 122.684570312 c 3
 369.513295592 122.684570312 392.48046875 158.459723589 392.48046875 189.080078125 c 3
 392.48046875 271.509184069 376.480774442 380.771906508 360.061523438 399.696289062 c 0
EndSplineSet
EndChar
StartChar: afii57687
Encoding: 1511 1511 2533
Width: 483
Flags: HW
AnchorPoint: "HbMiddle" 263 284 basechar 0
AnchorPoint: "HbTopLeft" 74.68 619.44 basechar 0
AnchorPoint: "HbTop" 224 619.44 basechar 0
LayerCount: 2
Fore
SplineSet
132.240234375 313.200195312 m 1
 152.559570312 301.16015625 l 1
 135.959960938 262.200195312 l 1
 128.999999999 194.97481239 140.599609375 -26.7506984447 142.919921875 -163.559570312 c 1
 84.2802734375 -246.080078125 l 1
 67.2802734375 -234.3203125 l 1
 66.1201171875 207.639648438 l 1
 132.240234375 313.200195312 l 1
193.669921875 570.520507812 m 3
 270.133187015 570.520507812 369.525080977 562.295898438 394.879882812 557.959960938 c 1
 419.240234375 467.48046875 435.48046875 344.51953125 435.48046875 266.799804688 c 0
 435.48046875 257.51953125 434.3203125 249.400390625 434.3203125 241.280273438 c 1
 420.205953664 187.274468155 314.891192657 60.6893599336 244.3203125 -27.3203125 c 1
 232.120117188 -18.5595703125 l 1
 233.280273438 108.16015625 l 1
 302.529259411 153.878391567 353.091364787 187.240740671 395.959960938 255.200195312 c 1
 392.36048626 324.467849011 380.359880117 377.655418696 365.959960938 432.080078125 c 1
 283.882238375 440.200195312 195.422495975 442.51953125 150.639648438 442.51953125 c 3
 114.43429992 442.51953125 57.8398437499 448.831746309 39.2802734375 481.440429688 c 1
 71.919921875 602.040039062 l 1
 89.080078125 596.240234375 l 1
 126.200195312 562.599609376 118.573242188 570.520507812 193.669921875 570.520507812 c 3
EndSplineSet
EndChar
StartChar: uni1E9E
Encoding: 7838 7838 827
Width: 862
Flags: HW
LayerCount: 2
Fore
SplineSet
558 662.286 m 1
 513.119 684.632 461.875 691 427 691 c 3
 348.607038107 691 290.089262399 662.805766983 251.5652853 614.000004851 c 0
 214.556814268 567.114226951 196 501.206707958 196 423 c 0
 196 391 204 96 204 89 c 0
 205 34 235 32 303 26 c 1
 299 -10 l 1
 218 -3 85 -3 25 -10 c 1
 20 30 l 1
 102 39 114 42 114 86 c 0
 114 99.6095 109 381.781 109 409 c 3
 109 497.751302387 142.848304088 581.867724994 200.644543845 641.999996436 c 0
 253.556923378 697.051009825 326.540972551 732 412 732 c 3
 518.903 732 608.904 692.709 669 657.05 c 1
 656 623.886 l 1
 550.467 658.176 482 583.631 482 515 c 3
 482 414.592 559.518 407.956 696 346 c 0
 802.796 297.598 823 216.37 823 168 c 3
 823 91.3508 770.672 -15 588 -15 c 3
 542.11 -15 493.718 -5 452 13 c 0
 432.544 21.3947 433 19 423 -9 c 1
 391 -5 l 1
 392 64 389 82 363 189 c 1
 397 195 l 1
 415 136 421.494 117.527 443 95 c 0
 478.323 58 555.861 28 611 28 c 3
 704.5 28 743 97.4809 743 151 c 3
 743 269 570.173 296 516 328 c 0
 497.432 338.968 406 377.693 406 490 c 3
 406 557.191 455.409 629.646 558 662.286 c 1
EndSplineSet
Position2: "cpsp-1" dx=0 dy=0 dh=50 dv=100
EndChar
StartChar: dagger
Encoding: 8224 8224 437
Width: 442
Flags: HW
LayerCount: 2
Fore
SplineSet
275 370 m 1
 238.585365854 262 242.463414634 250 229 -18 c 1
 214 -18 l 1
 198.292682927 266 202.664872333 282.899414062 168 370 c 1
 204.414634146 443.320261438 205.024390244 462.941176471 214 528 c 1
 134 518 l 2
 78.3356643357 511.041958042 83 491 57 491 c 3
 43.9615951896 491 17 518 17 535 c 3
 17 552 45.9580078125 580 58 580 c 3
 83 580 83.3846153846 561.326923077 134 555 c 2
 214 545 l 1
 203 620 l 2
 197.363084579 658.433514232 177 681 177 702 c 3
 177 718 205 741 222 741 c 3
 239 741 267 718 267 704 c 3
 267 681 246.494649567 657.463519773 241 620 c 2
 230 545 l 1
 310 555 l 2
 365.677655678 561.95970696 360 581 386 581 c 3
 398.165039062 581 427 554 427 537 c 3
 427 520 398.038085938 492 385 492 c 3
 360 492 360.604370858 511.752546808 310 518 c 2
 229 528 l 1
 237.975609756 463.973856209 238.585365854 444.352941176 275 370 c 1
EndSplineSet
EndChar
StartChar: trademark
Encoding: 8482 8482 1299
Width: 690
Flags: HW
LayerCount: 2
Fore
SplineSet
666.16015625 429.033203125 m 1
 637.044685904 434.618884365 572.158751989 435.105201645 535.758789062 428.0625 c 1
 533.213867188 446.733398438 l 1
 577.953521857 449.363239571 575.080000001 452.106938016 570.586914062 528.763671875 c 0
 568.594360631 562.758712296 569.978897758 556.410704748 566.216796875 594.46875 c 1
 539.421296875 565.495693365 533.614736103 556.326991036 513.654296875 510.538085938 c 0
 502.855184427 485.765107279 491.975071136 451.864462793 488.14453125 431.111328125 c 1
 465.037109375 431.111328125 l 1
 464.530606654 457.734484695 452.676542965 490.239494169 441.771484375 513.935546875 c 1
 443.73796642 512.000554206 397.232891034 595.000739767 395.56640625 584.05078125 c 1
 387.593732269 538.065172305 381.922051259 548.301943525 381.24609375 498.971679688 c 0
 380.6235987 453.543017897 402.227926917 449.886266947 421.530273438 444.791015625 c 1
 419.104492188 425.392578125 l 1
 392.289389697 429.890209713 343.0764016 431.46998542 309.953125 425.150390625 c 1
 308.5 444.4296875 l 1
 331.066034025 448.589475008 343.474785217 445.007342709 348.736328125 494.163085938 c 1
 348.770827345 491.891194251 364.964961031 590.213134446 365.314453125 586.389648438 c 1
 365.641941064 614.678502299 363.346525601 631.481915493 353.859375 646.881835938 c 0
 345.838262158 659.902025544 338.230516098 666.687559225 319.775390625 669.249023438 c 1
 323.29296875 689.861328125 l 1
 343.509220321 686.830247185 388.779823456 684.159675872 410.110351562 684.887695312 c 1
 422.054402635 685.223693599 422.390710864 673.873781354 426.323242188 664.966796875 c 0
 451.776772552 607.315838434 465.356288752 591.847849585 498.361328125 545.754882812 c 1
 500.156836966 536.700874422 580.246657185 679.481116241 580.865234375 680.645507812 c 0
 582.926637298 684.52583225 586.68015911 686.775267993 590.321289062 686.34375 c 0
 608.763450089 684.158130588 646.265277534 685.249939553 664.5859375 687.071289062 c 1
 666.524414062 667.793945312 l 1
 638.864330547 669.65194981 627.654160238 661.25683335 630.299804688 606.466796875 c 0
 632.215731829 566.788858308 630.59960581 537.258580832 631.806640625 525.732421875 c 0
 638.815637492 458.802445179 646.180634201 449.887741728 666.765625 449.5234375 c 1
 666.16015625 429.033203125 l 1
83.7841796875 683.15625 m 0
 147.795806847 679.707355875 214.721601649 678.25372448 280.1640625 681.883789062 c 0
 286.565957419 682.238899364 290.843723539 684.793895174 293.634765625 688.311523438 c 1
 306 680.310546875 l 1
 299.325892318 659.951100751 292.432781103 643.915143185 290.989257812 612.407226562 c 1
 268.319335938 615.317382812 l 1
 268.319335938 615.086381279 268.278812781 622.422929986 269.194335938 627.084960938 c 1
 277.460733935 659.877992605 214.195417074 655.914428345 199.953125 653.587890625 c 1
 193.84425424 593.253250621 189.351066207 554.5232433 196.3125 487.268554688 c 0
 199.954042746 452.08746546 198.605526916 455.182710113 231.586914062 449.278320312 c 1
 228.673828125 428.544921875 l 1
 187.09343025 436.189475679 123.254587043 433.640474033 85.5341796875 424.904296875 c 1
 81.8974609375 447.944335938 l 1
 116.324111879 456.954397532 117.882851923 462.252520783 121.098632812 477.442382812 c 0
 128.726324708 513.472072484 135.208037056 629.589700338 119.829101562 653.407226562 c 1
 89.3642763096 655.826217778 87.814218003 655.86393241 67.8720703125 644.801757812 c 0
 51.9437354321 635.966098573 54.875900524 640.05725351 33.49609375 610.344726562 c 1
 14.703125 618.8359375 l 1
 27.4944204462 645.298877096 40.3194654847 679.702298568 46.3857421875 694.134765625 c 1
 52.6764494199 689.543049967 59.970216273 684.439326874 83.7841796875 683.15625 c 0
EndSplineSet
EndChar
StartChar: uni2123
Encoding: 8483 8483 430
Width: 805
UnlinkRmOvrlpSave: 1
Flags: HW
LayerCount: 2
Fore
SplineSet
190 -72 m 1
 296 95.08984375 446 461.09765625 442 479 c 1
 331 519 l 1
 322.75 542.192382812 368.208984375 573.033203125 397 596 c 1
 444.190429688 579.23046875 470.809570312 569.76953125 518 553 c 1
 478 475 277.146484375 -19.3583984375 242 -97 c 1
 190 -72 l 1
EndSplineSet
Refer: 54 86 N 1 0 0 1 0 0 2
EndChar
StartChar: estimated
Encoding: 8494 8494 431
Width: 752
Flags: HW
LayerCount: 2
Fore
SplineSet
632.777 191.846 m 1
 676.861 166.441 l 1
 673.98 161.581 l 2
 613.377 59.3301 501.767 -9 376 -9 c 0
 189.553 -9 30.1973 142.604 30.1973 338.341 c 0
 30.1973 525.945 184.438 682.615 375.52 682.923 c 2
 376.044 682.923 l 2
 564.48 682.923 722.035 529.016 722.03 336.942 c 0
 722.03 329.967 721.813 323.039 721.4 316.168 c 2
 721.084 310.923 l 1
 191.384 310.923 l 1
 191.384 107.399 l 1
 242.467 66.2236 307.069 41.917 376 41.917 c 0
 483.087 41.917 578.216 100.053 629.964 187.113 c 2
 632.777 191.846 l 1
191.384 566.668 m 1
 191.384 362.073 l 1
 562.454 362.073 l 1
 562.454 565.158 l 1
 511.302 606.997 446.18 632.006 376.044 632.006 c 2
 375.598 632.006 l 2
 305.803 631.894 241.805 607.323 191.384 566.668 c 1
EndSplineSet
EndChar
StartChar: integral
Encoding: 8747 8747 1315
Width: 164
Flags: HW
LayerCount: 2
Fore
SplineSet
112 297 m 3
 112 263.34375 113 -64.806640625 113 -85 c 3
 113 -193 101.520507812 -261.221679688 60 -296 c 0
 25.3330078125 -323 -7.5556640625 -348 -60 -348 c 3
 -78.5419921875 -348 -107.513671875 -337 -122 -315 c 1
 -121 -288 -122 -288 -73 -251 c 1
 -44.47265625 -269 -21.7958984375 -293 6 -293 c 3
 38.296875 -293 35.94140625 -200.5546875 43 -90 c 0
 44 -72.439453125 49 248.926757812 49 270 c 3
 49 303.391601562 48 628.96484375 48 649 c 3
 48 757 59.4794921875 825.221679688 101 860 c 0
 135.666992188 887 168.555664062 912 221 912 c 3
 239.541992188 912 268.513671875 901 283 879 c 1
 282 852 283 852 234 815 c 1
 205.47265625 833 182.795898438 857 155 857 c 3
 122.703125 857 130.353515625 764.18359375 118 654 c 0
 116.266601562 636.6640625 112 317.897460938 112 297 c 3
EndSplineSet
EndChar
StartChar: greaterequal
Encoding: 8805 8805 1319
Width: 463
Flags: HW
LayerCount: 2
Fore
SplineSet
35 360.314453125 m 1
 50.5 412 l 1
 426.5 299.142578125 l 25
 428.5 276.232421875 l 25
 44.5 162 l 1
 35.5 193.512695312 l 1
 316 276.109375 l 1
 35 360.314453125 l 1
EndSplineSet
Refer: 330 8722 N 1 0 0 1 0 -124 2
Position2: "'case' vertical ajustments for all-caps-1" dx=0 dy=90 dh=0 dv=0
EndChar
StartChar: uni2303
Encoding: 8963 8963 1534
Width: 329
Flags: HW
LayerCount: 2
Fore
SplineSet
173 721 m 1
 219 635 245 544 309 464 c 1
 287 454 l 1
 250 492 216 541 164 541 c 3
 112 541 79 492 42 454 c 1
 20 464 l 1
 83.5328467153 544 110.335766423 635 156 721 c 1
 173 721 l 1
EndSplineSet
EndChar
StartChar: uni261C
Encoding: 9756 9756 349
Width: 2241
Flags: HW
LayerCount: 2
Fore
SplineSet
65.4062 488.98 m 1
 133.471 493.169 171.866 495.579 238.634 514.306 c 1
 246.596 504.546 534.656 534.515 542.911 561.332 c 1
 564.898 551.482 577.512 547.037 605.929 570.229 c 1
 773.769 556.794 986.458 616.839 1106 648 c 1
 1329.25 569.701 1572.25 468.729 1696.18 430.638 c 1
 1739.57 483.052 1793.53 507.924 1848.05 516.793 c 1
 2110.43 547.303 l 1
 2163.02 255.056 2175.68 -29.6611 2148.35 -306.85 c 1
 1892.24 -297.519 l 1
 1875.45 -261.822 1858.65 -226.126 1841.85 -190.43 c 1
 1814.48 -179.761 1789.09 -165.358 1754.94 -149.172 c 1
 1614.8 -241.059 1469.34 -206.779 1327.96 -171.926 c 1
 1302.89 -235.181 1261.64 -288.312 1185.82 -267.69 c 1
 1164.81 -330.418 1107.45 -355.95 1072.25 -326.185 c 0
 999.4 -264.557 891.756 -230.288 835.198 -172.483 c 1
 682.232 -206.512 560.41 -112.538 687.913 48.1104 c 1
 660.334 112.992 745.543 185.467 777.889 271.683 c 1
 695.375 282.243 590.004 307.018 566.297 298.763 c 0
 515.511 281.073 363.284 309.172 334.218 317.119 c 1
 176.398 304.119 59.9014 331.849 65.4062 488.98 c 1
227.493 480.275 m 1
 178.401 472.663 150.689 468.371 101.594 460.757 c 1
 93.8691 413.082 244.447 408.912 227.493 480.275 c 1
1084.38 592.183 m 0
 825.397 554.269 996.286 546.32 636.788 522.399 c 0
 585.692 519 590.137 488.802 569.033 486.987 c 0
 550.55 485.4 544.591 511.314 526.415 507.695 c 0
 434.1 489.321 365.902 488.599 263.3 476.39 c 1
 250.997 394.928 192.292 410.334 113.398 407.811 c 1
 114.412 376.567 264.124 347.652 350.099 377.665 c 1
 407.623 368.682 461.089 357.379 523.575 380.384 c 1
 604.456 372.626 651.254 355.211 727.339 401.371 c 1
 807.605 356.047 974.055 358.16 1064.13 421.6 c 1
 1070.94 421.779 1071.33 413.38 1077.52 410.565 c 1
 1051.33 362.256 1084.46 312.087 1114.36 315.387 c 0
 1130.39 317.154 1149.22 354.088 1163.9 376.21 c 0
 1172.19 388.706 1208.8 379.251 1202.08 365.563 c 0
 1164.56 289.234 1183.03 221.194 1302.92 308.083 c 0
 1330.21 327.857 1391.28 329.565 1389.06 296.334 c 0
 1387.54 273.576 1345.13 302.372 1303.25 264.596 c 0
 1210.07 180.539 1123.04 118.563 1008.84 107.013 c 1
 996.464 98.4824 989.483 93.6709 977.105 85.1396 c 1
 876.257 142.62 705.042 54.8047 694.435 -5.28809 c 1
 757.921 -1.57617 796.29 11.3975 834.737 -28.0469 c 1
 861.688 11.0107 922.306 3.84277 985.483 11.0127 c 1
 998.435 5.33398 1005.74 2.13281 1018.69 -3.54395 c 1
 1031.07 4.98828 1038.05 9.79883 1050.42 18.3291 c 1
 1063.43 11.9795 1070.77 8.39844 1083.78 2.04883 c 1
 1093.29 11.6924 1098.66 17.1289 1108.17 26.7725 c 1
 1169 0.666992 1265.6 3.79102 1298.85 55.3369 c 0
 1307.77 69.1582 1331.21 74.7871 1353.92 73.9941 c 0
 1497.96 68.9609 1697.02 60.1641 1760.13 150.666 c 0
 1796.28 202.51 1766.13 361.801 1721.3 387.54 c 1
 1551.99 437.4 1391.01 515.096 1175.49 584.343 c 0
 1141.59 595.234 1119.66 597.348 1084.38 592.183 c 0
823.456 -100.385 m 1
 821.674 -60.501 792.91 -39.6387 757.787 -39.8809 c 0
 715.507 -40.1699 663.499 -75.8311 669.326 -101.442 c 0
 672.815 -116.764 791.04 -134.5 823.456 -100.385 c 1
1825.2 474.796 m 1
 1793.57 452.477 1775.72 439.887 1744.09 417.571 c 1
 1790.28 409.132 l 1
 1834.35 392.028 1910.85 90.5078 1840.19 -91.3711 c 1
 1844.61 -94.3838 1847.1 -96.085 1851.52 -99.1006 c 1
 1989.62 -17.6104 1923.24 389.222 1825.2 474.796 c 1
EndSplineSet
EndChar
StartChar: uni263F
Encoding: 9791 9791 1537
Width: 500
UnlinkRmOvrlpSave: 1
Flags: HW
LayerCount: 2
Fore
SplineSet
53 621 m 1
 103.144441835 504.715162568 190.598320927 493.999023438 258.392578125 493.999023438 c 3
 321.879275669 493.999023438 403.356465713 519.221109614 447 621 c 1
 463 618 l 1
 443.474422046 509.600535894 396.438356163 482.782257022 334 452 c 1
 176 450 l 1
 103.411945745 480.327456241 48.6013403044 515.796604329 37 618 c 1
 53 621 l 1
EndSplineSet
Refer: 1532 9792 N 1 0 0 1 0 0 2
EndChar
StartChar: uni2B24
Encoding: 11044 11044 1624
Width: 1070
Flags: HW
LayerCount: 2
Fore
SplineSet
35 260.54296875 m 3
 35 536.330078125 258.684570312 760 535 760 c 3
 811.315429688 760 1035 536.330078125 1035 260.54296875 c 3
 1035 -15.244140625 811.315429688 -240 535 -240 c 3
 258.684570312 -240 35 -15.244140625 35 260.54296875 c 3
EndSplineSet
EndChar
StartChar: uni2C6D
Encoding: 11373 11373 1187
Width: 758
Flags: HW
LayerCount: 2
Fore
SplineSet
645.830078125 57.8427734375 m 0
 651.759765625 35.9013671875 666.823303934 41.3318146476 668.372070312 41.7734375 c 0
 681.668711467 44.9510484276 707.312110258 51.3062702828 718.708984375 54.4833984375 c 1
 733.200195312 24.09765625 l 1
 674.771044617 -1.99446126919 605.318017883 -32 589.883789062 -32 c 3
 578.612304688 -32 562.241270502 -28.9616948167 560.901367188 -4.6826171875 c 0
 559.291015625 24.4969886741 559.291015625 76.5131095179 559.291015625 81.587890625 c 1
 498.268229167 43.6650390625 403.961259367 -13.220703125 293.009765625 -13.220703125 c 3
 147.70703125 -13.220703125 37 121.877929688 37 248.706054688 c 3
 37 482.398978077 238.464183688 679.861328125 477.174804688 679.861328125 c 3
 551.501715586 679.861328125 551.501715586 667.006835938 581.42578125 667.006835938 c 3
 618.458007812 667.006835938 631.338867188 700.751953125 642.610351562 712 c 1
 673.202148438 694.32421875 l 1
 669.982421875 684.682617188 663.428278912 658.01301799 658.711914062 642.90234375 c 0
 649.05078125 611.94921875 639.805194852 577.720052188 634.559570312 446.859375 c 0
 632.94921875 405.819468247 632.94921875 231.811141536 632.94921875 162.864257812 c 3
 632.94921875 128.047523259 637.482442733 88.7312240287 645.830078125 57.8427734375 c 0
557.240234375 127.401367188 m 1
 558.060646379 275.743131283 559.291015625 359.586647532 559.291015625 506.315429688 c 3
 559.291015625 519.681208203 553.721026109 555.196599517 543.189453125 570.916015625 c 0
 518.139648437 608.305330962 450.395507812 621.157226562 398.278320312 621.157226562 c 3
 248.702937551 621.157226562 132.149414062 465.445452346 132.149414062 293.340820312 c 3
 132.149414062 173.097968142 211.9453125 51.5185546875 364.0078125 51.5185546875 c 3
 483.357046775 51.5185546875 538.296622762 105.083289907 557.240234375 127.401367188 c 1
EndSplineSet
Position2: "cpsp-1" dx=0 dy=0 dh=50 dv=100
EndChar
StartChar: aogonek.pcap
Encoding: 57406 57406 1658
Width: 425
UnlinkRmOvrlpSave: 1
Flags: HW
LayerCount: 2
Fore
SplineSet
143.658203125 152.256835938 m 1
 166.760742188 147.873046875 228.293945312 148.784179688 252.259765625 149.141601562 c 1
 234.357421875 196.650390625 218.28515625 235.573242188 195.754882812 282.887695312 c 1
 188.006835938 265.853515625 160.5703125 194.850585938 143.658203125 152.256835938 c 1
285.221886005 -15.000002649 m 0
 295.876554076 -6.37326304821 300.440999401 -2.33821261418 300.440999401 5.66170634304 c 0
 300.440999401 10.2580366813 298.934255986 16.1631875036 296.210148895 25 c 0
 285.705641551 59.0758856722 273.372108094 87.405761341 261.342773438 123.435546875 c 1
 231.176757812 129.916015625 167.497070312 132.1015625 135.071289062 129.077148438 c 1
 123.00390625 100.045898438 112.61025193 82.5008167026 105.403320312 54.2529296875 c 0
 99.7470703125 32.0830078125 121.645507812 19.5087890625 156.688476562 14.0341796875 c 1
 154.732421875 -5.958984375 l 1
 131.793945312 -2.5185546875 95.4580078125 -0.056640625 63.751953125 -0.056640625 c 0
 48.3212890625 -0.056640625 33.9990234375 -0.73046875 22.9189453125 -2.2451171875 c 1
 22.9189453125 -2.2451171875 21.1669921875 9.92578125 20.962890625 16.404296875 c 1
 52.705078125 21.65625 62.1826550072 39.5948320251 66.583984375 49.265625 c 0
 104.068359375 131.627929687 167.625640936 278.218152448 203.504882812 373.689453125 c 0
 206.047851562 380.456054688 208.674804688 389.806640625 210.075195312 402.825195312 c 1
 229.948242188 402.201171875 l 1
 230.861328125 392.50390625 232.733044429 382.513088397 234.958007812 375.505859375 c 0
 273.525390625 254.04296875 321.851581308 119.58331365 363.8203125 37.4560546875 c 0
 372.899414062 19.689453125 389.788085938 16.81640625 404 15.26171875 c 1
 404 15.26171875 402.865234375 3.5791015625 402.35546875 -2.5439453125 c 1
 387.443922862 -1.36328125 368.141806246 -0.5849609375 348.623046875 -0.5849609375 c 3
 336.434405374 -0.5849609375 319.6239983 -4.3138716335 309.193971127 -12.9999980669 c 0
 249.820663116 -62.446087862 225 -123.287230208 225 -167 c 0
 225 -220.067382812 253.479492188 -251.530273438 289.515625 -251.530273438 c 0
 303.508789062 -251.530273438 320.310546875 -244.583984375 337.55078125 -229.2578125 c 1
 337.55078125 -229.2578125 347.568941418 -234.34613956 345.349609375 -237.658203125 c 0
 323.9765625 -269.5546875 287.967773438 -293.658203125 255.12109375 -293.658203125 c 0
 209.392578125 -293.658203125 168.912109375 -258.805664062 168.912109375 -200.493164062 c 0
 168.912109375 -158.637366812 200.150981716 -83.8791581566 285.221886005 -15.000002649 c 0
EndSplineSet
EndChar
StartChar: ohorn.pcap
Encoding: 57467 57467 1738
Width: 574
UnlinkRmOvrlpSave: 1
Flags: HW
AnchorPoint: "Top" 283 465 basechar 0
AnchorPoint: "Bottom" 288 -15 basechar 0
LayerCount: 2
Fore
SplineSet
467 442 m 3
 467 450 463 459 453 471 c 1
 469 490 489 500 507 500 c 3
 537 500 553 475 553 446 c 3
 553 396 475 365 413 365 c 3
 396.693226827 365 384.800989272 368.375821354 376 374.99513533 c 0
 367.530150111 381.365395992 361.923306707 390.739666541 358 403 c 1
 373 397 397 390 411 390 c 3
 436 390 467 409 467 442 c 3
EndSplineSet
Refer: 657 57361 N 1 0 0 1 0 0 2
EndChar
StartChar: uni0195.pcap
Encoding: 57498 57498 1806
Width: 847
Flags: HW
LayerCount: 2
Fore
SplineSet
478 147 m 0
 478 71.6250537394 510.93218521 32 592 32 c 0
 667.513306734 32 708.103837686 54.232510243 712 148 c 0
 714.242075426 201.959195638 712 291.91556948 711 348 c 0
 709 383 692 381 652 382 c 1
 653 407 l 1
 686 403 785 401 808 407 c 1
 810 381 l 1
 777 381 762 383 759 351 c 0
 756 347.829349347 751 281.238747668 750 147 c 0
 750 40.733348295 675.425048804 -6 567 -6 c 0
 468.04476062 -6 408.764071853 42.0910178428 411 136 c 0
 411.2890625 148.14007767 410 134.8046875 411 189 c 1
 181 189 l 1
 180 142.701955976 180 95.4178261861 183 57 c 0
 184 25 213 26 231 20 c 1
 231 20 228 3 228 -4 c 1
 199.128420419 1.2493781056 168.052363199 4.0187188666 138.388121044 4.0187188666 c 0
 111.542350854 4.0187188666 85.8528607142 1.7506218944 64 -3 c 1
 64 -3 61 15 60 24 c 1
 79 29 102 29 105 58 c 0
 111.02325267 117.226442081 114.144139522 206.666661814 114.144139522 272.383061663 c 0
 114.144139522 315.77116638 112.783723131 348.817892197 110 356 c 0
 105 380 85 381 63 384 c 1
 65 409 l 1
 100.970073031 405.899131635 132.709376831 402.798263271 166.658176466 402.798263271 c 0
 187.450171411 402.798263271 209.070941396 403.961389384 233 407 c 1
 235 383 l 1
 222 380 193 379 190 366 c 1
 185 345.588867188 185 275.170898438 183 217 c 1
 411 218 l 1
 411 252.8359375 411 292.794921875 409 343 c 0
 407 378 384 376 361 385 c 1
 364 408 l 1
 386.901994577 403.419601085 410.013789697 400.937207592 433.527579394 400.937207592 c 0
 461.349470565 400.937207592 489.734154144 404.412558482 519 412 c 1
 523 388 l 1
 497 381 489 378 486 352 c 0
 476 262.22265625 478 158.517578125 478 147 c 0
EndSplineSet
EndChar
StartChar: uni01BF.pcap
Encoding: 57499 57499 1807
Width: 467
UnlinkRmOvrlpSave: 1
Flags: HW
AnchorPoint: "Top" 282 465 basechar 0
AnchorPoint: "Bottom" 317 -15 basechar 0
LayerCount: 2
Fore
SplineSet
189 -56 m 0
 190.9375 -71 209.400290556 -74.5244558904 220 -76 c 0
 227.18359375 -77 235.713867188 -79 242 -80 c 1
 241 -103 l 1
 211.75 -102 188.5 -100 157 -100 c 3
 133.388474368 -100 95.611525632 -105 72 -109 c 1
 69 -86 l 1
 76.3330078125 -85 81.6931936478 -83.5666064433 89 -81 c 0
 105.322265625 -75.2666015625 106.022773038 -64.1430790383 111 -38 c 0
 116 -11.7373046875 120 34.7275390625 120 112 c 3
 120 198.610351562 114.60306233 283.504196651 112 298 c 0
 109.424242424 329.263157895 102.212121212 342 95 342 c 3
 86.1904761905 342 65.9285714286 331 58 331 c 1
 52 357 l 1
 82.1988620924 363.60546875 128.720643682 387.197265625 163 424 c 1
 175 417.260742188 182 419.913085938 182 331 c 1
 184.0625 336.517578125 302.65625 410.080078125 314 411 c 1
 352.9453125 411 416 334.126953125 416 260 c 3
 416 193.715820312 225.572420634 65.4072265625 160 38 c 1
 149.432617188 59 l 1
 207.932617188 81.634765625 347 187.9453125 347 230 c 3
 347 294.295898438 303.412109375 345 269 345 c 3
 250.12195122 345 183 315.467773438 183 287 c 0
 183 242.099609375 183 200.399414062 183 145 c 3
 183 91.90625 184.811562041 -23.5733835462 189 -56 c 0
EndSplineSet
EndChar
StartChar: theta.pcap
Encoding: 57530 57530 1841
Width: 505
Flags: HW
LayerCount: 2
Fore
SplineSet
378.25 253.5 m 1
 377.221679688 227.764765872 377.459472656 183.744544344 380.75 156.299804688 c 1
 356.25 154.700195312 l 1
 350.827148438 178.330390294 347.051134833 179.113879431 332.75 180.299804688 c 0
 329.454573702 181.099888393 304.190764624 185.900390625 286.25 185.900390625 c 3
 264.947294347 185.900390625 235.118048234 181.947211144 231.25 180.299804688 c 0
 217.314453125 178.24266183 216.282714844 168.64266183 215.25 156.299804688 c 1
 190.25 157.099609375 l 1
 193.48828125 191.133143538 193.89453125 222.559301291 190.25 256.700195312 c 1
 214.75 258.299804688 l 1
 216.805664062 248.535464016 218.403931366 241.148045853 233.25 236.700195312 c 0
 236.706402403 233.500195313 245.539735736 228.700195312 286.25 228.700195312 c 3
 321.921961167 228.700195312 329.570791212 231.845274942 331.75 232.700195312 c 0
 347.75 234.634488689 351.75 233.344959771 353.75 254.299804688 c 1
 378.25 253.5 l 1
EndSplineSet
Refer: 657 57361 N 1 0 0 1 0 0 2
EndChar
StartChar: psi.pcap
Encoding: 57537 57537 1848
Width: 518
Flags: HW
LayerCount: 2
Fore
SplineSet
190.454101562 409 m 1
 214.740110334 402.856445312 238.272537859 400.120117188 262.208007812 400.120117188 c 0
 285.895891351 400.120117188 309.964480173 402.607421875 335.454101562 407 c 1
 336.36328125 379 l 1
 316.854453125 378 302.653310169 384.24065173 299.36328125 349 c 0
 295.606827471 308.763308278 292.118359259 259.648410435 291.812716103 193.522816886 c 1
 377.119930411 232.39958595 342.54485664 411.395507813 435.0859375 411.395507812 c 0
 466.574817003 411.395507812 479.340723522 393.46089814 487 373.28515625 c 1
 389.854701491 319.558416959 407.72427367 192.000041 291.788026507 168.674198519 c 1
 291.806746512 137.780839017 292.150328611 103.372664324 296 65 c 0
 298.909375 36 328 21 360 20 c 1
 359.090820312 -6 l 1
 331.588728636 -2.6171875 296.774819513 -0.869140625 262.57421875 -0.869140625 c 0
 226.034569077 -0.869140625 190.193395166 -2.8662109375 164.727539062 -7 c 1
 162 19 l 1
 194.880191473 20 225.372333411 31.9534315877 228.727539062 69 c 0
 231.30328811 97.4401831617 232.852276838 132.594660137 233.415681803 169.021720266 c 1
 118.604136416 193.753844707 136.074970956 319.825405254 39 372.694335938 c 1
 46.9543516897 392.868227181 60.2120673987 410.8046875 92.9140625 410.8046875 c 0
 184.877923738 410.8046875 151.202816803 235.553078543 233.650022411 194.804539113 c 1
 233.810114979 251.810214073 235.914739815 312.476209872 229.909179688 348 c 0
 224.668399825 379 206.979800141 377 188.63671875 381 c 1
 190.454101562 409 l 1
EndSplineSet
EndChar
StartChar: gha.smcp
Encoding: 57792 57792 2150
Width: 670
UnlinkRmOvrlpSave: 1
Flags: HW
LayerCount: 2
Fore
SplineSet
435.5 463.9 m 1
 468.790127452 467.078710937 569.369704465 482.786523438 603.3 495.5 c 1
 620.3 476.5 l 1
 604.236614711 433.793247076 596.955273437 293.329882328 596.955273437 220.79453125 c 3
 596.955273437 134.268359375 596.923736765 27.7232949603 605.5 -64.9 c 0
 607.877088225 -89.5361569282 646.789587373 -90.8164173984 675 -92.5 c 1
 671.9 -125.2 l 1
 638.539054619 -120.462795011 594.865445275 -116.936377091 559.001862746 -116.936377091 c 1
 522.072828184 -116.936377091 481.489726736 -122.741883054 447.7 -127.6 c 1
 444.1 -95.3 l 1
 492.841567769 -92.505312021 524.985151359 -92.3664958245 527.4 -46.2 c 0
 530.193066406 24.9676757813 531.574511719 124.893164063 531.574511719 207.457226563 c 3
 531.574511719 259.729851973 530.64801398 343.674532486 526.1 413.9 c 0
 524.738291172 428.307538047 517.050717561 441.408203125 498.0875 441.408203125 c 3
 486.965869141 441.408203125 467.665495099 433.85685436 455.8 428 c 1
 435.5 463.9 l 1
309.8 466.2 m 3
 213.325 466.2 131.526464843 394.492041589 131.526464843 271.678027343 c 3
 131.526464843 143.244925045 223.878320312 24.8 335.2 24.8 c 3
 359.778309644 24.8 378.976177879 29.7864257812 390.372949218 36.2577148438 c 1
 397.866939375 47.7419592838 402.5078125 184.634005822 402.5078125 253.987890625 c 3
 402.5078125 319.616885354 396.937988282 422.596524003 384.777246093 448.549511718 c 1
 363.327338351 459.030566406 339.89318541 466.2 309.8 466.2 c 3
325.005566407 503 m 3
 377.168623755 503 424.832288283 487.503758562 461.619628907 461.887207032 c 1
 459.192934128 392.313574215 453.817675781 322.739941404 453.817675781 253.166992188 c 3
 453.817675781 179.233105471 459.737981998 105.29853516 463.050195313 31.3646484375 c 1
 425.509127167 4.28814119438 376.382429002 -12.0127929688 320.836132813 -12.0127929688 c 3
 171.2375 -12.0127929688 50.3 92.9295898435 50.3 237.323925782 c 3
 50.3 394.562207032 184.966601562 503 325.005566407 503 c 3
EndSplineSet
EndChar
StartChar: theta.smcp
Encoding: 57854 57854 2212
Width: 591
Flags: HW
LayerCount: 2
Fore
SplineSet
448.525 318.6 m 1
 447.188183594 283.98455486 447.497314453 224.774696666 451.775 187.859863282 c 1
 425.925 186.140136718 l 1
 418.875292969 222.619554456 413.79136079 222.835770289 395.375 225.659863282 c 0
 390.495642998 226.519921875 353.08890633 231.680273438 326.525 231.680273438 c 3
 295.810371668 231.680273438 252.805778295 227.413047801 247.225 225.659863282 c 0
 229.108789062 222.419863281 227.767529297 207.299863281 226.425 187.859863282 c 1
 199.325 188.719726562 l 1
 203.535058594 234.275329383 204.063183594 276.34082731 199.325 322.040136718 c 1
 225.775 323.759863282 l 1
 228.447363281 307.83839903 230.182849613 294.95773366 249.825 288.540136718 c 0
 254.827001213 285.100136719 267.610334547 279.940136718 326.525 279.940136718 c 3
 379.484142348 279.940136718 390.83597963 283.341692459 394.075 284.240136718 c 0
 414.875 287.394142082 420.075 285.29147184 422.675 319.459863282 c 1
 448.525 318.6 l 1
EndSplineSet
Refer: 2043 57685 N 1 0 0 1 0 0 2
EndChar
StartChar: xi.smcp
Encoding: 57856 57856 2214
Width: 531
Flags: HW
LayerCount: 2
Fore
SplineSet
52.1806640625 353.741503906 m 1
 56.4252929688 410.576757813 57.3364257812 450.579882813 56.0600585938 498.5 c 1
 70.0236778753 492.627856918 173.635152085 489.400234046 274.273344355 489.400234046 c 3
 369.176822407 489.400234046 461.436219833 492.270491861 473.37890625 498.5 c 1
 471.132128906 445.845996094 472.739746094 392.137988281 479.819335938 350.175683594 c 1
 449.913964844 346.609863281 l 1
 449.913964844 383.7484375 451.775 419.030664063 420.75703125 420.268457031 c 0
 378.670478366 423.57975957 323.219466155 425.199720881 268.806497273 425.199720881 c 3
 206.04011881 425.199720881 144.654966432 423.044185876 106.757128906 418.842675781 c 0
 85.5091796875 416.39375 87.2798828125 383.334960938 84.3286132812 350.888574219 c 9
 52.1806640625 353.741503906 l 1
487.2 146.229492188 m 1
 476.412792969 85.7549804689 474.095214844 43.1892578125 477.339941406 -7.8 c 1
 463.175985274 -1.92785691845 358.079667787 1.29976595381 255.99928238 1.29976595381 c 3
 159.735792373 1.29976595381 66.1543109141 -1.57049186117 54.0404296875 -7.8 c 1
 56.2865234375 48.1451171875 54.6798828125 105.209082031 47.6 149.7953125 c 1
 77.5046875 153.360449219 l 1
 77.5046875 112.605957031 75.262109375 73.8896484375 112.64296875 72.5315429688 c 0
 154.729521634 69.2202404303 210.180533845 67.6002791186 264.593502727 67.6002791186 c 3
 327.35988119 67.6002791186 388.745033568 69.7558141241 426.642871094 73.9573242188 c 0
 453.557226562 76.664453125 451.313964844 113.211914062 455.052050781 149.081738281 c 9
 487.2 146.229492188 l 1
414.8640625 326.999902344 m 1
 413.326953125 286.218066406 413.682226562 216.461425781 418.602148437 172.970410156 c 9
 401.407226562 171.544628906 l 1
 393.298632812 214.499414062 387.21640625 213.78359375 366.268945313 218.079394531 c 0
 359.540527344 218.792285156 307.955078125 223.0703125 271.321289062 223.0703125 c 27
 230.20234375 223.0703125 172.635546875 219.505175781 165.159375 218.079394531 c 0
 144.322460938 214.213476563 142.779882813 196.169238281 141.236035156 172.970410156 c 9
 121.797851562 173.683984375 l 1
 126.640234375 227.046386719 127.24765625 276.32109375 121.797851562 329.852148437 c 9
 140.48828125 331.277929687 l 1
 143.561914062 312.844726562 145.098730469 297.204199219 168.149707031 290.501269531 c 0
 174.878808594 287.648339844 192.073730469 283.3703125 271.321289062 283.3703125 c 3
 344.588183594 283.3703125 360.28828125 286.221875 364.774121094 286.935449219 c 0
 388.697460938 290.587304688 394.678808594 288.152050781 397.669140625 327.712792969 c 9
 414.8640625 326.999902344 l 1
EndSplineSet
EndChar
StartChar: pi.smcp
Encoding: 57857 57857 2215
Width: 639
Flags: HW
LayerCount: 2
Fore
SplineSet
184.5 55 m 0
 185.676367188 21.7938476563 221.7 23.7 243.9 17.4 c 1
 243.9 17.4 240.6 -1.4 240.3 -10.5 c 1
 204.607612452 -4.24505501917 169.366131418 -0.853202753358 135.755366416 -0.853202753358 c 0
 105.913490724 -0.853202753358 77.3563747346 -3.51621875001 51.1 -9.2 c 1
 51.1 -9.2 47.5 10.6 46.2 22.3 c 1
 70.3 27.6 98.4690429688 27.5931640625 100.8 55.7 c 0
 106.982943405 129.821125275 109.868481496 239.184656673 109.868481496 322.231325499 c 0
 109.868481496 380.968035736 108.433148464 426.602676564 105.8 437.3 c 0
 100.2 460.7 76.6 461.4 49.8 465 c 1
 52.1 493.9 l 1
 88.0541992188 490.35078125 120.157324219 487.116015625 154.010742188 486.60625 c 1
 210.549316406 486.844726562 439.125585937 486.693164062 499.219140625 486.570703125 c 1
 527.707617187 487.200292969 557.075292969 490.870507813 589.2 498.1 c 1
 593.8 470.2 l 1
 560.9 461.7 551.928222656 460.208203125 549.3 433.6 c 0
 543.099340554 363.644778273 538.141273709 250.476352616 538.141273709 164.387685542 c 0
 538.141273709 109.414426925 540.044610257 64.9030295813 544.4 49.3 c 0
 552 21.5 572.3 19.8 592.5 17.1 c 1
 592.5 17.1 588.9 -0.1 589.2 -9.2 c 1
 564.353421062 -3.90741591169 535.880514224 -0.896064511495 506.251364012 -0.896064511495 c 0
 475.397269476 -0.896064511495 443.291975989 -4.15677878441 412.8 -11.5 c 1
 412.8 -10.1 407.5 6.6 406.2 15.8 c 1
 437.8 24.4 458.20703125 26.2713867188 460.4 54.8 c 0
 465.929580232 130.083867528 469.029325669 196.811054053 469.029325669 268.509582646 c 0
 469.029325669 314.613091539 467.838142601 362.692600831 465.4 416.4 c 0
 463.893066406 444.74609375 442.086425781 453.823925781 413.65 454.159375 c 0
 392.315136719 455.166894531 265.214746094 455.075488281 239.65 455.030078125 c 1
 221.74609375 455.083105469 195.958300781 449.941992187 193 438.8 c 0
 184.881926349 394.660183091 181.770885951 295.665945235 181.770885951 205.793667539 c 0
 181.770885951 148.459460772 183.186675217 92.0295312525 184.5 55 c 0
EndSplineSet
EndChar
StartChar: uni019E.smcp
Encoding: 57994 57994 2352
Width: 561
Flags: HW
LayerCount: 2
Fore
SplineSet
560.9 -213.7 m 1
 560.9 -213.7 555.9 -243.5 556.2 -247.7 c 1
 518.402423334 -239.182202113 492.913372449 -236.511695442 452.217370372 -236.511695442 c 1
 419.593335578 -236.511695442 377.33247864 -241.357063849 346.2 -248.6 c 1
 346.2 -248.6 341.6 -218.6 341 -215 c 1
 388.577483741 -205.701767871 411.379915075 -207.46507164 414.339941406 -154.125 c 0
 417.184863281 -99.8015362637 421.420117188 22.5391965951 421.420117188 73.5 c 3
 421.420117188 166.20078125 419.383849501 305.113357814 416.120117188 343.175 c 0
 411.437109375 397.015397621 388.467773438 435.55 324.739941406 435.55 c 3
 266.226757813 435.55 215.027832031 418.53 174.8 393 c 1
 173.506640625 282.302450059 168.979882812 128.116890823 168.979882812 80.675 c 3
 168.979882812 28.8279968095 202.899003001 33.0095039968 245.5 26.7 c 1
 245.5 26.7 241.5 -4 241.2 -8.2 c 1
 198.417718159 -1.41961969309 163.929477178 3.53369404002 121.683681685 3.53369404002 c 1
 89.6338451269 3.53369404002 53.8593722346 -1.04165407609 21.9 -6.2 c 1
 21.9 -6.2 18.3 24.1 17.7 29.5 c 1
 61.1078215258 37.1317754337 85.9867640643 42.0762330443 92.4600585936 86.8 c 0
 97.7573242186 126.359667969 98.3 202.935839844 98.3 243.775 c 3
 98.3 268.275 95.5010650992 352.768331466 89.7798828125 377.3 c 0
 82.1266601562 411.86875 72.4913085938 414.3 57.1201171875 414.3 c 3
 46.6018554688 414.3 37.7 410.9 26.0600585938 410.375 c 1
 22.2 441.4 l 1
 61.9213867188 449.248144531 102.242773438 456.649804688 155.320117187 499.7 c 1
 158.482394583 498.925922054 174.891041457 486.691728569 175.893871484 484.100000656 c 1
 174.589461578 468.665123607 172.760058594 442.364924924 172.760058594 419.95 c 1
 228.339746094 455.903222656 288.551367187 499.975 361.5 499.975 c 3
 442.629003906 499.975 492.639941406 450.975 492.639941406 364 c 3
 492.639941406 288.099882812 490.279882812 205.299941406 490.279882812 122.5 c 3
 490.279882812 -11.6377361919 488.603180076 -141.225950176 493.820117187 -181.075 c 0
 498.026469907 -213.280360239 530.058504797 -209.177306428 560.9 -213.7 c 1
EndSplineSet
EndChar
StartChar: Uni030B
Encoding: 58027 58027 166
Width: 300
Flags: HW
AnchorPoint: "Top" 87 699 mark 0
LayerCount: 2
Fore
SplineSet
1.888671875 757.153320312 m 17
 35.6455078125 804.243164062 68.5947265625 850.198242188 113.23046875 891.401367188 c 9
 113.23046875 891.401367188 141.600585938 864.666015625 158.706054688 846.58984375 c 1
 100.091796875 814.403320312 69.9951171875 807.861328125 10.5 741.299804688 c 9
 1.888671875 757.153320312 l 17
163.970703125 755.4921875 m 17
 199.840820312 800.993164062 234.853515625 845.396484375 281.322265625 884.51953125 c 9
 281.322265625 884.51953125 306.58203125 859.606445312 322.844726562 840.767578125 c 1
 269.815429688 810.970703125 238.361328125 803.85546875 172.893554688 740.215820312 c 9
 163.970703125 755.4921875 l 17
EndSplineSet
EndChar
StartChar: Uni0327
Encoding: 58030 58030 281
Width: 0
Flags: HW
AnchorPoint: "Bottom" -191 -15 mark 0
LayerCount: 2
Fore
SplineSet
-302.112304688 -216.84375 m 1
 -297.392578125 -203.880859375 l 1
 -240.39369989 -216.344380063 -183.927734375 -186.015769168 -183.927734375 -135.090820312 c 0
 -183.927734375 -110.921414439 -202.821163546 -81.0070281734 -240.666992188 -94.1416015625 c 1
 -245.891601562 -81.6220703125 l 1
 -241.050744831 -77.5834409264 -235.428591569 -75.0205906856 -230.581054688 -71.529296875 c 0
 -202.556920266 -51.3457501708 -199.515275245 -29.8030449157 -189.571289062 4.443359375 c 1
 -159.571289062 12.443359375 l 1
 -159.571289062 12.443359375 -175.449058458 -50 -188.390625 -61.6669921875 c 1
 -159.551912989 -62 -124.031 -91.6921 -124.031 -124.709 c 0
 -124.031 -204.066 -223.517578125 -250.771484375 -302.112304688 -216.84375 c 1
EndSplineSet
EndChar
StartChar: thinrule
Encoding: 58113 58113 1967
Width: 1000
Flags: HW
LayerCount: 2
Fore
SplineSet
0 -9 m 1
 0 9 l 1
 1000 9 l 1
 1000 -9 l 1
 0 -9 l 1
EndSplineSet
EndChar
StartChar: f.alt
Encoding: 58119 58119 1190
Width: 306
Flags: HW
AnchorPoint: "Top" 252 748 basechar 0
LayerCount: 2
Back
SplineSet
314 756 m 3x78
 343.009345794 756 388.336448598 745 411 723 c 1
 410 696 411 696 362 659 c 1
 326.611111111 677 298.481481481 701 264 701 c 3
 200.279661017 701 197.186440678 609 191 498 c 0
 190 488 188 435 187 397 c 1
 239 399 286 399 338 401 c 1
 338 355 l 1
 286 357 238 358 186 360 c 1
 185 330 185 305 185 293 c 3
 185 211 186 134 191 54 c 0
 192 39 198 34 214 33 c 0x78
 239 32 262 32 287 31 c 1
 284 -6 l 1xb8
 242 -1 182 1 140 1 c 3x78
 110 1 64 -2 34 -6 c 1
 33 30 l 1xb8
 44 31 58 31 69 33 c 0
 100 40 104 53 106 81 c 0
 111 133 114 201 114 266 c 3
 114 286 113 323 113 360 c 1
 88 359 64 356 39 355 c 1
 39 401 l 1
 64 400 88 398 113 397 c 1
 113 436 113 481 113 493 c 3
 113 601 144.378378378 657 194 704 c 0
 228.666666667 731 261.555555556 756 314 756 c 3x78
EndSplineSet
Fore
SplineSet
311 750 m 3
 335.574468085 750 358.659574468 741 381 727 c 1
 396 711 366 676 359 672 c 1
 326.375 687 298.5078125 707 272 707 c 3
 186 707 172 604 162 535 c 0
 156 489 156 447 156 400 c 1
 307 400 l 1
 307 370 l 1
 157 373 l 1
 157 309 156 244 156 180 c 0
 156 132 157 82 163 36 c 0
 165 16 184 19 205 18 c 0
 211 18 240 17 250 16 c 1
 250 -4 l 1
 217 -4 172 0 139 0 c 0
 100 0 56 -2 18 -6 c 1
 18 12 l 1
 42 16 l 0
 85 22 87 44 88 86 c 0
 89 148 90 210 90 273 c 0
 90 304 90 342 90 373 c 1
 67 372 41 371 20 371 c 1
 20 400 l 1
 91 400 l 1
 92 457 93 511 104 560 c 0
 119 629 156 664 205 700 c 0
 236.56894932 723.193513786 281.463414634 750 311 750 c 3
EndSplineSet
EndChar
StartChar: afii10038.alt
Encoding: 58148 58148 2616
Width: 845
UnlinkRmOvrlpSave: 1
Flags: HW
LayerCount: 2
Fore
SplineSet
273.559570312 825 m 1
 330.729492188 815.854492188 375.41015625 812 421 812 c 3
 465.620117188 812 510.719726562 815.60546875 569.41015625 822 c 1
 571.349609375 779 l 1
 515.08984375 777 478.058198422 787.015941252 474.349609375 746 c 0
 467.268554688 635.805700017 459.33203125 487.804507128 459.33203125 296.6484375 c 3
 459.33203125 192.885570612 462.35361101 77.3323874604 466.58984375 -51 c 0
 468.530273438 -90 518.969726562 -85 571.349609375 -87 c 1
 570.379882812 -126 l 1
 520.41796875 -120.390625 464.650390625 -117 411.299804688 -117 c 3
 359.889648438 -117 310.063476562 -120.139648438 268.709960938 -127 c 1
 263.860351562 -87 l 1
 322.059570312 -87 376.164938072 -89.9399540566 379.290039062 -40 c 0
 383.793945312 64.3795382444 385.998046875 201.905149311 385.998046875 336.857421875 c 3
 385.998046875 494.554622415 384.321691437 648.963671033 377.349609375 744 c 0
 373.469726562 780 321.08984375 777 269.6796875 782 c 1
 273.559570312 825 l 1
EndSplineSet
Refer: 40 79 N 1 0 0 1 0 0 2
EndChar
StartChar: afii10067.alt
Encoding: 58150 58150 2618
Width: 507
Flags: HW
AnchorPoint: "Bottom" 248 -15 basechar 0
AnchorPoint: "Top" 104 749 basechar 0
LayerCount: 2
Fore
SplineSet
137 332 m 9
 136 241 135 189 135 98 c 3
 135 92 139 85 146 79 c 0
 177 52 219 36 260 36 c 3
 337 36 398 96 398 180 c 3
 398 270 344 369 243 369 c 3
 199 369 147 342 137 332 c 9
3 683 m 1
 40 690 96 718 146 759 c 1
 167 743 l 1
 157 717 149 687 148 667 c 0
 143 599 137 484 137 368 c 1
 170 382 226 412 286 412 c 3
 391 412 467 315 467 223 c 3
 467 94 351 -9 210 -9 c 3
 148 -9 141 15 108 15 c 3
 85 15 70 -3 63 -10 c 1
 45 2 l 1
 47 8 51 22 55 31 c 0
 61 49 67 69 68 145 c 0
 70 288 72 367 72 510 c 3
 72 570 72 607 68 627 c 0
 63 654 56 656 38 656 c 3
 28 656 17 654 8 654 c 1
 3 683 l 1
EndSplineSet
EndChar
StartChar: afii10096.alt
Encoding: 58169 58169 2637
Width: 674
UnlinkRmOvrlpSave: 1
Flags: HW
AnchorPoint: "Top" 123 739 basechar 0
AnchorPoint: "Bottom" 242 -15 basechar 0
LayerCount: 2
Fore
SplineSet
150 214 m 1
 150 144.3 154.239684952 76.8593931978 158 50 c 0
 160 35.7142857143 168.216496592 32.8756009088 179 30 c 0
 189 27.3333333333 199 26.6666666667 213 26 c 1
 208 -8 l 1
 174 -3.63636363636 155 0 113 0 c 3
 83 0 47 -5.44444444444 17 -7 c 1
 15 26 l 1
 26 27 37.0062667276 28.968917707 47 31 c 0
 70 35.6744186047 76.4878317809 45.3456414408 79 72 c 0
 84 125.050505051 88 207.686868687 88 274 c 3
 88 534 86 594 84 626 c 0
 83 642 77 656 60 656 c 3
 54 656 29 650 19 649 c 1
 11 681 l 1
 63 692 122 720 165 754 c 1
 185 738 l 1
 179 724 172.389816486 696.957573186 171 686 c 0
 161 607.158129176 150 344.351893096 150 214 c 1
447 419 m 3
 568.875 419 642 311 642 205 c 3
 642 78 557.096774194 -11 446 -11 c 3
 332.71875 -11 243 71 243 194 c 3
 243 351 365.4 419 447 419 c 3
426 374 m 3
 359.125 374 319 304 319 227 c 3
 319 124 379.636942675 28 455 28 c 3
 523.753846154 28 564 102 564 181 c 3
 564 302 489.358490566 374 426 374 c 3
EndSplineSet
Refer: 1967 58113 N 0.161 0 0 1 104 207 2
EndChar
StartChar: f_j
Encoding: 58320 58320 718
Width: 527
Flags: HW
LayerCount: 2
Fore
SplineSet
441 200 m 0
 440 86 438 -28.9956897353 438 -145 c 0
 438 -166 431.372299611 -179.503600519 422 -192 c 0
 401 -220 375.324518279 -246.419414645 347 -268 c 0
 326 -284 304 -297 298 -338 c 1
 281 -333 l 1
 281 -303 296 -273 310 -253 c 0
 331 -223 357.081393189 -195.021326107 367 -157 c 0
 379 -111 380 1 380 77 c 3
 380 150.327272727 379.352220833 221.652262132 376 295 c 0
 374.286132812 332.5 363.951510689 368.132145836 328 370 c 0
 270.257519794 373 214.072038032 371.858559239 157 373 c 1
 157 309 156 244 156 180 c 0
 156 132 158.384056901 82.1594309899 163 36 c 0
 165 16 183.976203958 18 205 18 c 0
 211 18 240 17 250 16 c 1
 250 -4 l 1
 217 -4 172 0 139 0 c 0
 100 0 56 -2 18 -6 c 1
 18 12 l 1
 42 16 l 2
 84.8108108108 23.1351351351 87.3224767817 43.9935604664 88 86 c 0
 89 148 90 210 90 273 c 0
 90 304 90 342 90 373 c 1
 67 372 41 371 20 371 c 1
 20 400 l 1
 91 400 l 1
 92 457 93.3318856278 510.926673888 104 560 c 0
 119 629 156.700692095 663.065235131 205 700 c 0
 239 726 274 750 328 750 c 0
 379.957446809 750 428.765957447 726.130434783 476 689 c 1
 491 673 461 638 454 634 c 1
 385.75 665.285714286 356.453125 707 272 707 c 3
 186 707 171.017640704 604.135245397 162 535 c 0
 156 489 156 447 156 400 c 1
 307 400 l 2
 370.20610687 400 412.34351145 406.72 445 424 c 1
 455 419 l 1
 453 402 448.622398749 383.034166374 447 363 c 0
 442.714285714 310.077922078 441.455016294 251.8718575 441 200 c 0
EndSplineSet
LCarets2: 1 0
Ligature2: "liga-1" f j
EndChar
StartChar: four.smaller
Encoding: 58362 58362 2546
Width: 301
Flags: HW
LayerCount: 2
Fore
SplineSet
162 107 m 1
 162 149.32967033 165 185.78021978 159 214 c 1
 159 214 106.076923077 148.894230769 63 103 c 1
 65.4146341463 103 159.585365854 103 162 107 c 1
214 287 m 1
 211.333333333 272.631578947 210.45002058 258.388112242 210 245 c 0
 208.285714286 194 207.285714286 165 207 107 c 1
 257.965909091 107 268.681818182 108 276 125 c 1
 276 125 286.5625 120.714285714 289 119 c 1
 289 119 277 82.3793103448 269 60 c 1
 254 70 225 69 207 69 c 1
 207 45.131147541 209 21.262295082 213 13 c 1
 179.618181818 -2.84210526316 168.818181818 -16.4210526316 159 -30 c 1
 159 -30 149.157894737 -23.25 148 -21 c 1
 161.928571429 -3.63414634146 161 18.0731707317 161 68 c 1
 51.6825396825 68 35.9047619048 68.8 19 56 c 1
 19 56 11.5882352941 64.2352941176 10 66 c 1
 18.1276595745 74.1434977578 189.824468085 264.497757848 201 293 c 1
 214 287 l 1
EndSplineSet
EndChar
StartChar: five.smaller
Encoding: 58363 58363 2547
Width: 254
Flags: HW
LayerCount: 2
Fore
SplineSet
74.412109375 266.584960938 m 1
 108.864420649 269.762695312 182.352539062 269.140625 193.212890625 270.265625 c 0
 210.915039062 272.099609375 215.892578125 282.903320312 222.006835938 290.837890625 c 1
 222.006835938 290.837890625 230.9140625 284.627929688 233.999023438 283.081054688 c 1
 216.987304688 259.015625 199.105739341 216.685528962 188.45703125 216.080078125 c 0
 164.857421875 214.73828125 128.47265625 213.567382812 84.6826171875 213.583984375 c 1
 84.6826171875 213.583984375 80.6337890625 191.657226562 79.37890625 171.564453125 c 1
 132.564453125 181.149414062 202.377929688 164.106445312 202.377929688 104.953125 c 3
 202.377929688 42.2451171875 94.0068359375 -10.7265625 21.9990234375 -15.060546875 c 1
 21.9990234375 -15.060546875 22.234375 -3.25750521785 20.6103515625 -1.0078125 c 1
 73.2236328125 0.874496218381 147.450195312 38.7685546875 147.450195312 87.900390625 c 3
 147.450195312 108.596679688 124.038085938 138.3671875 53.875 124.525390625 c 1
 61.396484375 155.361328125 70.197265625 211.252929688 74.412109375 266.584960938 c 1
EndSplineSet
EndChar
StartChar: zero.tabularlining
Encoding: 58378 58378 682
Width: 463
Flags: HW
LayerCount: 2
Back
SplineSet
217 633 m 3
 141 633 95 499.5 95 366 c 3
 95 185.482758621 157 17 257 17 c 3
 345 17 369 184.532467532 369 317 c 3
 369 483.733668342 317 633 217 633 c 3
244 656 m 3
 353 656 434 523.2 434 344 c 3
 434 153.558823529 343 -6 224 -6 c 3
 111 -6 30 147.218274112 30 337 c 3
 30 510.712871287 134 656 244 656 c 3
EndSplineSet
Fore
SplineSet
227 632 m 3
 148.81420765 632 94 499 94 366 c 3
 94 187.551724138 151.407407407 21 244 21 c 3
 336.659340659 21 368 186.298701298 368 317 c 3
 368 483.206030151 319.763157895 632 227 632 c 3
244 656 m 3
 353 656 434 523.2 434 344 c 3
 434 153.558823529 343 -6 224 -6 c 3
 111 -6 30 147.218274112 30 337 c 3
 30 510.712871287 134 656 244 656 c 3
EndSplineSet
Substitution2: "pnum-1" zero.proportionallining
Substitution2: "onum-1" zero.tabulartext
Substitution2: "numr-1" zero.numerator
Substitution2: "dnom-1" zero.denom
Substitution2: "'zero' Slashed Zero lookup 22-1" zero.tabularliningalt
EndChar
StartChar: two.tabularlining
Encoding: 58380 58380 684
Width: 463
Flags: HW
LayerCount: 2
Back
SplineSet
48 513.5 m 1
 84.2030707465 582.12654728 158.154893663 635.5 233 635.5 c 3
 333.34375 635.5 402 570.442307692 402 436.5 c 3
 402 283.240944602 124 110 85 55 c 1
 244.500227472 44.5 289.317975025 47.5 375 53 c 1
 406.98828125 53.8720703125 418 77.5 444 117.5 c 1
 456 109.5 l 1
 456 109.5 404 27.5 386 -20.5 c 1
 369 -18 377.052734375 0.5 338 0.5 c 3
 43.2262630208 0.5 45.5668619792 -0.6484375 27 -5 c 1
 22 10 l 1
 83.1561461794 124 334 234.924190801 334 426.5 c 3
 334 547.964285714 282.128031885 605.5 215 605.5 c 3
 136.786810247 605.5 96.9413710579 552.224137931 63 502.5 c 1
 48 513.5 l 1
EndSplineSet
Fore
SplineSet
62 513.5 m 1
 95.4633789062 582.12654728 163.818847656 635.5 233 635.5 c 3
 342.25 635.5 417 583.519230769 417 476.5 c 3
 417 318.588780815 141 194.334960938 74 54 c 1
 238.450195312 50.75 324.575195312 56.4501953125 375 58 c 1
 406.98828125 58.8310546875 418 79.3604651163 444 117.5 c 1
 456 109.5 l 1
 456 109.5 404 27.5 386 -20.5 c 1
 369 -18 377.052734375 0.5 338 0.5 c 3
 43.2262630208 0.5 45.5668619792 -0.6484375 27 -5 c 1
 22 10 l 1
 109 204 349 307.987382206 349 466.5 c 3
 349 560.821428571 290.589548509 605.5 215 605.5 c 3
 143.990656672 605.5 107.815192145 552.224137931 77 502.5 c 1
 62 513.5 l 1
EndSplineSet
Substitution2: "pnum-1" two.proportionallining
Substitution2: "onum-1" two.tabulartext
Substitution2: "numr-1" two.numerator
Substitution2: "dnom-1" two.denom
EndChar
StartChar: five.tabularlining
Encoding: 58383 58383 687
Width: 463
Flags: HW
LayerCount: 2
Fore
SplineSet
141 635.5 m 1
 229.919876872 637.450195312 347.722362926 637.068326077 369 640.5 c 0
 395.412109375 644.759765625 409.110351562 670.610351562 421 690.5 c 1
 421 690.5 431.465169271 683.837053571 434 682.5 c 1
 407.090192522 639.599880642 382.254111383 572.166814253 365 572.5 c 0
 320.792651491 573.372070312 244.807562659 569.5 155 569.5 c 1
 155 569.5 141 503.039403376 141 450.5 c 1
 232.807852909 456.807692307 358 410.388914571 358 286.5 c 3
 358 121.077039107 181.318359375 -5.6679316888 59 -16 c 1
 59 -16 59.33984375 -4.55920410156 57 -2 c 1
 168.483398438 10.8104265403 295 113.455179946 295 266 c 3
 295 325.541763798 247.772460938 403.096774194 105 391 c 1
 118.6796875 447.695652174 135.7578125 546.06375558 141 635.5 c 1
EndSplineSet
Substitution2: "pnum-1" five.proportionallining
Substitution2: "onum-1" five.tabulartext
Substitution2: "numr-1" five.numerator
Substitution2: "dnom-1" five.denom
EndChar
StartChar: seven.tabularlining
Encoding: 58385 58385 689
Width: 463
Flags: HW
LayerCount: 2
Fore
SplineSet
103 654 m 1
 101 637 116.701690716 638.575896349 136 638 c 0
 260.66972255 634.314509132 441.454545455 636 456 640 c 1
 456 640 460.127929687 629.41452753 462 627 c 1
 425 592.907569769 161.888671875 37.1854241829 166 -6 c 1
 166 -6 119.1796875 -3.2197265625 95 -4 c 1
 200.474671709 189.287056486 282.771320268 329.912020998 384 554 c 0
 387.306033355 561.318502375 382.008321513 571.40285015 374 572 c 0
 291.910576849 578.12109375 281.595843034 580.49185891 157 576 c 0
 109.228800456 574.277779715 72.625 564.889072964 57 515 c 1
 57 515 45.466796875 520.064257813 42 521 c 1
 42 521 81 627.074626866 87 659 c 1
 103 654 l 1
EndSplineSet
Substitution2: "pnum-1" seven.proportionallining
Substitution2: "onum-1" seven.tabulartext
Substitution2: "numr-1" seven.numerator
Substitution2: "dnom-1" seven.denom
EndChar
StartChar: one.proportionallining
Encoding: 58389 58389 902
Width: 349
Flags: HW
LayerCount: 2
Back
SplineSet
58 626 m 1xd0
 77.4814453124 626.012695312 101.578125 625.253906248 127.260742188 625.838867188 c 0
 206.103515625 627.721679688 249.69140625 633.369140625 296 649 c 1
 298 625 l 1xb0
 221.384765625 604.829101562 219.5390625 597.119140625 215 566 c 0
 212.563476562 549.90682671 208 424.74015748 208 336 c 3
 208 228.324082936 209.383789062 76.7683800704 215 58 c 0
 222.543945312 31 257.743164062 29 303 27 c 1
 302 0 l 1
 257.326814003 3.33408993208 214.415271064 5.16732931767 171.414593903 5.16732931767 c 0
 130.872663726 5.16732931767 90.2515011645 3.53774276475 48 0 c 1
 46 26 l 1
 87.13671875 30 129.9609375 28.486328125 137 62 c 0
 141 79.8693700189 147 125.53633599 147 336 c 3
 147 514.752325149 144.70703125 553.454752604 142 564 c 0
 134.387695312 593.090820312 139.463867188 600.36328125 57 604 c 1
 58 626 l 1xd0
EndSplineSet
Fore
SplineSet
57.5 621 m 1
 79.4727915958 620.227693881 103.917053993 619.110351562 129.702148438 619.110351562 c 0
 180.776164787 619.110351562 236.75911 622.928224653 290 639.799804688 c 1
 295 621.799804688 l 1
 236.017238451 608.799804688 221.631029214 612.799804687 213 574.799804688 c 0
 210.763933069 566.025113643 205.5 436.848632812 205.5 311 c 3
 205.5 255.454101562 205.998988418 53.9489498928 207 43.7998046875 c 0
 209.684931507 13.7998046875 256.671232876 13.7998046875 305 11.7998046875 c 1
 304.5 -8 l 1
 245.663035192 0.763494349873 202.750894751 4.7275390625 164.338867188 4.7275390625 c 0
 125.291529078 4.7275390625 90.9610061443 0.51309299032 49 -7 c 1
 48 11.7998046875 l 1
 92.9565217393 15.7998046875 128.954158444 12.3239863456 142 44.7998046875 c 0
 146 53.7998046875 151.5 215 151.5 321 c 3
 151.5 437.80078125 150.999999999 567.799804687 141 590.799804688 c 0
 137.469979136 599.879686756 118.277002728 606.799804688 56.5 604 c 1
 57.5 621 l 1
EndSplineSet
Substitution2: "tnum-1" one.tabularlining
Substitution2: "onum-1" one
Substitution2: "numr-1" one.numerator
Substitution2: "dnom-1" one.denom
Substitution2: "salt-1" one.proportionalliningalt
EndChar
StartChar: four.proportionallining
Encoding: 58392 58392 905
Width: 511
Flags: HW
LayerCount: 2
Back
SplineSet
292 236.5 m 1xc0
 292 331.517578125 298.81640625 436.270507812 290 500.5 c 1
 290 500.5 173.0703125 332.961914062 90 236.5 c 1
 292 236.5 l 1xc0
379 646.5 m 1
 371.58984375 621.9296875 360.486328125 599.616210938 360 583.5 c 0xc0
 356 450.892578125 355.509765625 386.8671875 352 236.5 c 1
 419 235 435 237 471 295.5 c 1
 471 295.5 487.3203125 288.83984375 492 286.5 c 1
 492 286.5 467.549804688 223.974609375 450 184 c 1
 427.038085938 193.591796875 379.772460938 192.060546875 352 192 c 1
 351.793945312 124.376953125 354.56640625 51.1708984375 359 28.5 c 1
 320 5 298 -19 284 -44.5 c 1
 284 -44.5 260.509765625 -31.349609375 257 -25.5 c 1
 293 25.0322265625 290.592773438 83.16015625 291 191 c 1xa0
 107 191 68 192 40 174 c 1
 40 174 24.0703125 189.709960938 19 194 c 1
 34 211.754882812 334.3671875 598.8203125 355.5 659.299804688 c 1
 379 646.5 l 1
EndSplineSet
Fore
SplineSet
294 227.5 m 1
 294 327.915948276 300.81640625 438.620820144 292 506.5 c 1
 292 506.5 164.223291252 331.479165397 77 227.5 c 1
 294 227.5 l 1
377 641.5 m 1
 369.979851974 615.370117187 359.516948 591.637827017 359 574.5 c 0
 355 441.892255892 354.509765625 377.86689486 351 227.5 c 1
 435.504201681 226 443.579831933 228 478 286.5 c 1
 478 286.5 488.103050595 282.059895833 491 280.5 c 1
 491 280.5 466.549804688 216.144597942 449 175 c 1
 433.038085938 184.591796875 430.772460938 183.060546875 351 183 c 1
 350.793945312 116.617647377 353.56640625 44.7550992252 358 22.5 c 1
 315.88 -1.96575342466 292.12 -26.9520547945 277 -53.5 c 1
 277 -53.5 262.209852431 -45.8866159539 260 -42.5 c 1
 294.941176471 9.8993576017 292.60475069 70.1753316549 293 182 c 1
 58.7858644164 182 59.3386454183 182.470588235 30 174 c 1
 30 174 20.8973214286 182.640478516 18 185 c 1
 33.2674591382 202.75530728 338.990376579 589.820789262 360.5 650.299804688 c 1
 377 641.5 l 1
EndSplineSet
Substitution2: "tnum-1" four.tabularlining
Substitution2: "onum-1" four
Substitution2: "numr-1" four.numerator
Substitution2: "dnom-1" four.denom
EndChar
StartChar: one.proportionalliningalt
Encoding: 58419 58419 1427
Width: 373
Flags: HW
LayerCount: 2
Back
SplineSet
227 568 m 0xf0
 226 549.716876921 220 409.54420146 220 310 c 31xe8
 220 212.394196428 225 75.7458705357 227 58 c 0xf0
 234.54296875 31 269.743164062 29 315 27 c 9
 314 0 l 1
 269.327316656 3.33408993208 226.415758922 5.16732931767 183.414949028 5.16732931767 c 0
 142.872893708 5.16732931767 102.251501164 3.53774276475 60 0 c 9
 58 26 l 1
 99.13671875 30 134.041015625 32 149 62 c 0
 153 78.1743062759 159 119.506969657 159 310 c 3xe8
 159 408.186588485 158.123046875 470.246040378 157.086914062 509.799804688 c 0
 156.551757812 528.80078125 150.5 542.799804688 133.5 542.799804688 c 3
 124.21484375 542.799804688 83.9765625 525.657226562 68.5 522.799804688 c 1
 60.5 548.799804688 l 1
 116.861328125 568.9921875 181.89453125 620.387695312 228.5 682.799804688 c 1
 247.5 666.799804688 l 1
 238.038085938 640.200195312 228.209960938 588.924804688 227 568 c 0xf0
EndSplineSet
Fore
SplineSet
220 547 m 0
 218.760786842 530.68619074 218 405.127184426 218 316 c 3
 218 211.034510204 219.205174102 64.0758215602 220 45 c 0
 220.87962963 21 266.142731481 14.1290322581 315 12 c 1
 314 -8 l 1
 268.450080584 0.495672252441 224.69579679 5.1669921875 180.850585938 5.1669921875 c 0
 141.150823736 5.1669921875 101.373438966 1.01460470777 60 -8 c 1
 58 11 l 1
 102.753351351 15.7777777778 155.132075472 21 157 54 c 0
 158.047489513 71.2835769689 164 114.753560166 164 316 c 3
 164 410.746887872 163.161553259 470.632900394 162.086914062 508.799804688 c 0
 161.551916012 527.800804685 155.499938062 541.799804688 138.5 541.799804688 c 3
 128.071851351 541.799804688 82.8809054054 521.228204685 65.5 517.799804688 c 1
 61.5 531.799804688 l 1
 118.53259887 551.389058419 184.338926554 601.250849463 231.5 661.799804688 c 1
 245.5 652.799804688 l 1
 229.998487805 628.315241887 225.548074072 620.038461188 220 547 c 0
EndSplineSet
EndChar
StartChar: one.tabulartextalt
Encoding: 58462 58462 2639
Width: 463
Flags: HW
LayerCount: 2
Fore
SplineSet
264 326 m 0
 262.760786842 317.101558585 262 248.614827869 262 200 c 3
 262 141.126367347 263.508777371 58.717584619 264 48 c 0
 265 26.1818181818 316.456999999 19.935483871 372 18 c 1
 371 -2 l 1
 321.002828926 5.85044727384 272.976609778 10.1669921875 224.850585938 10.1669921875 c 0
 182.851303768 10.1669921875 140.769902918 6.329968112 97 -2 c 1
 95 17 l 1
 142.917729729 21.4444444445 197.583628759 26.2330994456 201 57 c 0
 202.047489513 66.4334026968 208 90.1593858921 208 200 c 3
 208 243.147130068 206.577038183 270.392547941 206.086914062 287.799804688 c 0
 205.551916012 306.800804685 199.499938062 320.799804688 182.5 320.799804688 c 3
 172.571831081 320.799804688 129.547574324 304.685552097 113 302 c 1
 109 316 l 1
 171.38781007 337.0712213 229.309889831 374.125077745 275.5 424.799804688 c 1
 289.5 415.799804688 l 1
 273.998487805 395.018018144 272.606963593 387.804186628 264 326 c 0
EndSplineSet
EndChar
StartChar: uniFB00
Encoding: 64256 64256 73
Width: 570
Flags: HW
LayerCount: 2
Back
SplineSet
328 730 m 3
 361 730 392 721 422 707 c 1
 437 691 407 656 400 652 c 1
 352 667 311 687 272 687 c 1027
EndSplineSet
Fore
SplineSet
359 400 m 1
 360 457 361.331885628 510.926673888 372 560 c 0
 379.757524654 595.684613409 393.586645906 622.025467666 411.813363183 644.251782068 c 1
 374.41860595 663.118329714 311.371575372 687 272 687 c 0
 186 687 172.552608015 583.917649874 162 515 c 0
 156 475.814814815 156 440.037037037 156 400 c 1
 156 400 240 400 294 400 c 27
 319 400 359 400 359 400 c 1
457.276771265 687.716658463 m 1
 462.37530251 691.81032168 467.621947931 695.887371947 473 700 c 0
 507 726 542 750 596 750 c 0
 629 750 660 741 690 727 c 1
 705 711 675 676 668 672 c 1
 620 687 579 707 540 707 c 0
 454 707 439.017640704 604.135245397 430 535 c 0
 424 489 424 447 424 400 c 1
 575 400 l 1
 575 370 l 1
 425 373 l 1
 425 309 424 244 424 180 c 0
 424 132 426.384056901 82.1594309899 431 36 c 0
 433 16 451.976203958 18 473 18 c 0
 479 18 508 17 518 16 c 1
 518 -4 l 1
 485 -4 440 0 407 0 c 0
 368.32231405 0 324.685950413 -1 287 -3 c 1
 287 16 l 1
 310 17 l 1
 353 22.9142857143 355.332150161 44.593310002 356 86 c 0
 357 148 358 210 358 273 c 0
 358 304 358 342 358 373 c 1
 336.971428571 372 319 371 294 371 c 27
 241 371 157 373 157 373 c 1
 157 309 156 244 156 180 c 0
 156 132 158.384056901 82.1594309899 163 36 c 0
 165 16 183.976203958 18 205 18 c 0
 210.866666667 18 239.222222222 17 249 16 c 1
 249 -4 l 1
 216.297297297 -4 171.702702703 0 139 0 c 0
 100 0 56 -2 18 -6 c 1
 18 12 l 1
 42 16 l 2
 85 22 87.3224767817 43.9935604664 88 86 c 0
 89 148 90 210 90 273 c 0
 90 304 90 342 90 373 c 1
 67 372 41 371 20 371 c 1
 20 400 l 1
 91 400 l 1
 92 449.875 94.5971007788 496.746663583 104 540 c 0
 119 609 156.700692095 643.065235131 205 680 c 0
 239 706 274 730 328 730 c 0
 373.342629616 730 415.996391468 713.516071532 457.276771265 687.716658463 c 1
EndSplineSet
Substitution2: "salt-1" uniFB00.alt
LCarets2: 1 283
Ligature2: "liga-1" f f
EndChar
